<svg xmlns="http://www.w3.org/2000/svg" viewBox="0 0 620 1330"><g transform="translate(0,0)"><rect width="100%" height="100%" fill="white"/><text x="35" y="25" font-size="15" fill="#172b4d">Radius as a function of angle</text><rect x="45" y="45" width="530" height="530" fill="#f6f8fc" stroke="#c5cfdd"/><path d="M45 310.00H575" stroke="#7e8a9d"/><text x="580" y="310.00" font-size="12">x</text><path d="M94.48 45V575" stroke="#7e8a9d"/><text x="99.48" y="55" font-size="12">y</text><path d="M94.48,310.00L94.84,311.80L95.20,313.59L95.56,315.38L95.92,317.17L96.28,318.95L96.64,320.73L97.00,322.50L97.36,324.26L97.72,326.01L98.07,327.76L98.43,329.48L98.79,331.20L99.15,332.90L99.51,334.58L99.87,336.25L100.23,337.90L100.59,339.53L100.95,341.14L101.31,342.73L101.67,344.30L102.03,345.84L102.39,347.36L102.74,348.86L103.10,350.32L103.46,351.76L103.82,353.17L104.18,354.55L104.54,355.90L104.90,357.22L105.26,358.51L105.62,359.76L105.98,360.98L106.34,362.16L106.70,363.31L107.05,364.43L107.41,365.50L107.77,366.54L108.13,367.53L108.49,368.49L108.85,369.41L109.21,370.29L109.57,371.12L109.93,371.92L110.29,372.67L110.65,373.38L111.01,374.04L111.36,374.67L111.72,375.24L112.08,375.78L112.44,376.26L112.80,376.71L113.16,377.10L113.52,377.45L113.88,377.76L114.24,378.01L114.60,378.23L114.96,378.39L115.32,378.51L115.68,378.58L116.03,378.60L116.39,378.58L116.75,378.51L117.11,378.39L117.47,378.23L117.83,378.01L118.19,377.76L118.55,377.45L118.91,377.10L119.27,376.71L119.63,376.26L119.99,375.78L120.34,375.24L120.70,374.67L121.06,374.04L121.42,373.38L121.78,372.67L122.14,371.92L122.50,371.12L122.86,370.29L123.22,369.41L123.58,368.49L123.94,367.53L124.30,366.54L124.66,365.50L125.01,364.43L125.37,363.31L125.73,362.16L126.09,360.98L126.45,359.76L126.81,358.51L127.17,357.22L127.53,355.90L127.89,354.55L128.25,353.17L128.61,351.76L128.97,350.32L129.32,348.86L129.68,347.36L130.04,345.84L130.40,344.30L130.76,342.73L131.12,341.14L131.48,339.53L131.84,337.90L132.20,336.25L132.56,334.58L132.92,332.90L133.28,331.20L133.64,329.48L133.99,327.76L134.35,326.01L134.71,324.26L135.07,322.50L135.43,320.73L135.79,318.95L136.15,317.17L136.51,315.38L136.87,313.59L137.23,311.80L137.59,310.00L137.95,308.20L138.30,306.41L138.66,304.62L139.02,302.83L139.38,301.05L139.74,299.27L140.10,297.50L140.46,295.74L140.82,293.99L141.18,292.24L141.54,290.52L141.90,288.80L142.26,287.10L142.61,285.42L142.97,283.75L143.33,282.10L143.69,280.47L144.05,278.86L144.41,277.27L144.77,275.70L145.13,274.16L145.49,272.64L145.85,271.14L146.21,269.68L146.57,268.24L146.93,266.83L147.28,265.45L147.64,264.10L148.00,262.78L148.36,261.49L148.72,260.24L149.08,259.02L149.44,257.84L149.80,256.69L150.16,255.57L150.52,254.50L150.88,253.46L151.24,252.47L151.59,251.51L151.95,250.59L152.31,249.71L152.67,248.88L153.03,248.08L153.39,247.33L153.75,246.62L154.11,245.96L154.47,245.33L154.83,244.76L155.19,244.22L155.55,243.74L155.91,243.29L156.26,242.90L156.62,242.55L156.98,242.24L157.34,241.99L157.70,241.77L158.06,241.61L158.42,241.49L158.78,241.42L159.14,241.40L159.50,241.42L159.86,241.49L160.22,241.61L160.57,241.77L160.93,241.99L161.29,242.24L161.65,242.55L162.01,242.90L162.37,243.29L162.73,243.74L163.09,244.22L163.45,244.76L163.81,245.33L164.17,245.96L164.53,246.62L164.89,247.33L165.24,248.08L165.60,248.88L165.96,249.71L166.32,250.59L166.68,251.51L167.04,252.47L167.40,253.46L167.76,254.50L168.12,255.57L168.48,256.69L168.84,257.84L169.20,259.02L169.55,260.24L169.91,261.49L170.27,262.78L170.63,264.10L170.99,265.45L171.35,266.83L171.71,268.24L172.07,269.68L172.43,271.14L172.79,272.64L173.15,274.16L173.51,275.70L173.86,277.27L174.22,278.86L174.58,280.47L174.94,282.10L175.30,283.75L175.66,285.42L176.02,287.10L176.38,288.80L176.74,290.52L177.10,292.24L177.46,293.99L177.82,295.74L178.18,297.50L178.53,299.27L178.89,301.05L179.25,302.83L179.61,304.62L179.97,306.41L180.33,308.20L180.69,310.00L181.05,311.80L181.41,313.59L181.77,315.38L182.13,317.17L182.49,318.95L182.84,320.73L183.20,322.50L183.56,324.26L183.92,326.01L184.28,327.76L184.64,329.48L185.00,331.20L185.36,332.90L185.72,334.58L186.08,336.25L186.44,337.90L186.80,339.53L187.16,341.14L187.51,342.73L187.87,344.30L188.23,345.84L188.59,347.36L188.95,348.86L189.31,350.32L189.67,351.76L190.03,353.17L190.39,354.55L190.75,355.90L191.11,357.22L191.47,358.51L191.82,359.76L192.18,360.98L192.54,362.16L192.90,363.31L193.26,364.43L193.62,365.50L193.98,366.54L194.34,367.53L194.70,368.49L195.06,369.41L195.42,370.29L195.78,371.12L196.14,371.92L196.49,372.67L196.85,373.38L197.21,374.04L197.57,374.67L197.93,375.24L198.29,375.78L198.65,376.26L199.01,376.71L199.37,377.10L199.73,377.45L200.09,377.76L200.45,378.01L200.80,378.23L201.16,378.39L201.52,378.51L201.88,378.58L202.24,378.60L202.60,378.58L202.96,378.51L203.32,378.39L203.68,378.23L204.04,378.01L204.40,377.76L204.76,377.45L205.11,377.10L205.47,376.71L205.83,376.26L206.19,375.78L206.55,375.24L206.91,374.67L207.27,374.04L207.63,373.38L207.99,372.67L208.35,371.92L208.71,371.12L209.07,370.29L209.43,369.41L209.78,368.49L210.14,367.53L210.50,366.54L210.86,365.50L211.22,364.43L211.58,363.31L211.94,362.16L212.30,360.98L212.66,359.76L213.02,358.51L213.38,357.22L213.74,355.90L214.09,354.55L214.45,353.17L214.81,351.76L215.17,350.32L215.53,348.86L215.89,347.36L216.25,345.84L216.61,344.30L216.97,342.73L217.33,341.14L217.69,339.53L218.05,337.90L218.41,336.25L218.76,334.58L219.12,332.90L219.48,331.20L219.84,329.48L220.20,327.76L220.56,326.01L220.92,324.26L221.28,322.50L221.64,320.73L222.00,318.95L222.36,317.17L222.72,315.38L223.07,313.59L223.43,311.80L223.79,310.00L224.15,308.20L224.51,306.41L224.87,304.62L225.23,302.83L225.59,301.05L225.95,299.27L226.31,297.50L226.67,295.74L227.03,293.99L227.39,292.24L227.74,290.52L228.10,288.80L228.46,287.10L228.82,285.42L229.18,283.75L229.54,282.10L229.90,280.47L230.26,278.86L230.62,277.27L230.98,275.70L231.34,274.16L231.70,272.64L232.05,271.14L232.41,269.68L232.77,268.24L233.13,266.83L233.49,265.45L233.85,264.10L234.21,262.78L234.57,261.49L234.93,260.24L235.29,259.02L235.65,257.84L236.01,256.69L236.36,255.57L236.72,254.50L237.08,253.46L237.44,252.47L237.80,251.51L238.16,250.59L238.52,249.71L238.88,248.88L239.24,248.08L239.60,247.33L239.96,246.62L240.32,245.96L240.68,245.33L241.03,244.76L241.39,244.22L241.75,243.74L242.11,243.29L242.47,242.90L242.83,242.55L243.19,242.24L243.55,241.99L243.91,241.77L244.27,241.61L244.63,241.49L244.99,241.42L245.34,241.40L245.70,241.42L246.06,241.49L246.42,241.61L246.78,241.77L247.14,241.99L247.50,242.24L247.86,242.55L248.22,242.90L248.58,243.29L248.94,243.74L249.30,244.22L249.66,244.76L250.01,245.33L250.37,245.96L250.73,246.62L251.09,247.33L251.45,248.08L251.81,248.88L252.17,249.71L252.53,250.59L252.89,251.51L253.25,252.47L253.61,253.46L253.97,254.50L254.32,255.57L254.68,256.69L255.04,257.84L255.40,259.02L255.76,260.24L256.12,261.49L256.48,262.78L256.84,264.10L257.20,265.45L257.56,266.83L257.92,268.24L258.28,269.68L258.64,271.14L258.99,272.64L259.35,274.16L259.71,275.70L260.07,277.27L260.43,278.86L260.79,280.47L261.15,282.10L261.51,283.75L261.87,285.42L262.23,287.10L262.59,288.80L262.95,290.52L263.30,292.24L263.66,293.99L264.02,295.74L264.38,297.50L264.74,299.27L265.10,301.05L265.46,302.83L265.82,304.62L266.18,306.41L266.54,308.20L266.90,310.00L267.26,311.80L267.61,313.59L267.97,315.38L268.33,317.17L268.69,318.95L269.05,320.73L269.41,322.50L269.77,324.26L270.13,326.01L270.49,327.76L270.85,329.48L271.21,331.20L271.57,332.90L271.93,334.58L272.28,336.25L272.64,337.90L273.00,339.53L273.36,341.14L273.72,342.73L274.08,344.30L274.44,345.84L274.80,347.36L275.16,348.86L275.52,350.32L275.88,351.76L276.24,353.17L276.59,354.55L276.95,355.90L277.31,357.22L277.67,358.51L278.03,359.76L278.39,360.98L278.75,362.16L279.11,363.31L279.47,364.43L279.83,365.50L280.19,366.54L280.55,367.53L280.91,368.49L281.26,369.41L281.62,370.29L281.98,371.12L282.34,371.92L282.70,372.67L283.06,373.38L283.42,374.04L283.78,374.67L284.14,375.24L284.50,375.78L284.86,376.26L285.22,376.71L285.57,377.10L285.93,377.45L286.29,377.76L286.65,378.01L287.01,378.23L287.37,378.39L287.73,378.51L288.09,378.58L288.45,378.60L288.81,378.58L289.17,378.51L289.53,378.39L289.89,378.23L290.24,378.01L290.60,377.76L290.96,377.45L291.32,377.10L291.68,376.71L292.04,376.26L292.40,375.78L292.76,375.24L293.12,374.67L293.48,374.04L293.84,373.38L294.20,372.67L294.55,371.92L294.91,371.12L295.27,370.29L295.63,369.41L295.99,368.49L296.35,367.53L296.71,366.54L297.07,365.50L297.43,364.43L297.79,363.31L298.15,362.16L298.51,360.98L298.86,359.76L299.22,358.51L299.58,357.22L299.94,355.90L300.30,354.55L300.66,353.17L301.02,351.76L301.38,350.32L301.74,348.86L302.10,347.36L302.46,345.84L302.82,344.30L303.18,342.73L303.53,341.14L303.89,339.53L304.25,337.90L304.61,336.25L304.97,334.58L305.33,332.90L305.69,331.20L306.05,329.48L306.41,327.76L306.77,326.01L307.13,324.26L307.49,322.50L307.84,320.73L308.20,318.95L308.56,317.17L308.92,315.38L309.28,313.59L309.64,311.80L310.00,310.00L310.36,308.20L310.72,306.41L311.08,304.62L311.44,302.83L311.80,301.05L312.16,299.27L312.51,297.50L312.87,295.74L313.23,293.99L313.59,292.24L313.95,290.52L314.31,288.80L314.67,287.10L315.03,285.42L315.39,283.75L315.75,282.10L316.11,280.47L316.47,278.86L316.82,277.27L317.18,275.70L317.54,274.16L317.90,272.64L318.26,271.14L318.62,269.68L318.98,268.24L319.34,266.83L319.70,265.45L320.06,264.10L320.42,262.78L320.78,261.49L321.14,260.24L321.49,259.02L321.85,257.84L322.21,256.69L322.57,255.57L322.93,254.50L323.29,253.46L323.65,252.47L324.01,251.51L324.37,250.59L324.73,249.71L325.09,248.88L325.45,248.08L325.80,247.33L326.16,246.62L326.52,245.96L326.88,245.33L327.24,244.76L327.60,244.22L327.96,243.74L328.32,243.29L328.68,242.90L329.04,242.55L329.40,242.24L329.76,241.99L330.11,241.77L330.47,241.61L330.83,241.49L331.19,241.42L331.55,241.40L331.91,241.42L332.27,241.49L332.63,241.61L332.99,241.77L333.35,241.99L333.71,242.24L334.07,242.55L334.43,242.90L334.78,243.29L335.14,243.74L335.50,244.22L335.86,244.76L336.22,245.33L336.58,245.96L336.94,246.62L337.30,247.33L337.66,248.08L338.02,248.88L338.38,249.71L338.74,250.59L339.09,251.51L339.45,252.47L339.81,253.46L340.17,254.50L340.53,255.57L340.89,256.69L341.25,257.84L341.61,259.02L341.97,260.24L342.33,261.49L342.69,262.78L343.05,264.10L343.41,265.45L343.76,266.83L344.12,268.24L344.48,269.68L344.84,271.14L345.20,272.64L345.56,274.16L345.92,275.70L346.28,277.27L346.64,278.86L347.00,280.47L347.36,282.10L347.72,283.75L348.07,285.42L348.43,287.10L348.79,288.80L349.15,290.52L349.51,292.24L349.87,293.99L350.23,295.74L350.59,297.50L350.95,299.27L351.31,301.05L351.67,302.83L352.03,304.62L352.39,306.41L352.74,308.20L353.10,310.00L353.46,311.80L353.82,313.59L354.18,315.38L354.54,317.17L354.90,318.95L355.26,320.73L355.62,322.50L355.98,324.26L356.34,326.01L356.70,327.76L357.05,329.48L357.41,331.20L357.77,332.90L358.13,334.58L358.49,336.25L358.85,337.90L359.21,339.53L359.57,341.14L359.93,342.73L360.29,344.30L360.65,345.84L361.01,347.36L361.36,348.86L361.72,350.32L362.08,351.76L362.44,353.17L362.80,354.55L363.16,355.90L363.52,357.22L363.88,358.51L364.24,359.76L364.60,360.98L364.96,362.16L365.32,363.31L365.68,364.43L366.03,365.50L366.39,366.54L366.75,367.53L367.11,368.49L367.47,369.41L367.83,370.29L368.19,371.12L368.55,371.92L368.91,372.67L369.27,373.38L369.63,374.04L369.99,374.67L370.34,375.24L370.70,375.78L371.06,376.26L371.42,376.71L371.78,377.10L372.14,377.45L372.50,377.76L372.86,378.01L373.22,378.23L373.58,378.39L373.94,378.51L374.30,378.58L374.66,378.60L375.01,378.58L375.37,378.51L375.73,378.39L376.09,378.23L376.45,378.01L376.81,377.76L377.17,377.45L377.53,377.10L377.89,376.71L378.25,376.26L378.61,375.78L378.97,375.24L379.32,374.67L379.68,374.04L380.04,373.38L380.40,372.67L380.76,371.92L381.12,371.12L381.48,370.29L381.84,369.41L382.20,368.49L382.56,367.53L382.92,366.54L383.28,365.50L383.64,364.43L383.99,363.31L384.35,362.16L384.71,360.98L385.07,359.76L385.43,358.51L385.79,357.22L386.15,355.90L386.51,354.55L386.87,353.17L387.23,351.76L387.59,350.32L387.95,348.86L388.30,347.36L388.66,345.84L389.02,344.30L389.38,342.73L389.74,341.14L390.10,339.53L390.46,337.90L390.82,336.25L391.18,334.58L391.54,332.90L391.90,331.20L392.26,329.48L392.61,327.76L392.97,326.01L393.33,324.26L393.69,322.50L394.05,320.73L394.41,318.95L394.77,317.17L395.13,315.38L395.49,313.59L395.85,311.80L396.21,310.00L396.57,308.20L396.93,306.41L397.28,304.62L397.64,302.83L398.00,301.05L398.36,299.27L398.72,297.50L399.08,295.74L399.44,293.99L399.80,292.24L400.16,290.52L400.52,288.80L400.88,287.10L401.24,285.42L401.59,283.75L401.95,282.10L402.31,280.47L402.67,278.86L403.03,277.27L403.39,275.70L403.75,274.16L404.11,272.64L404.47,271.14L404.83,269.68L405.19,268.24L405.55,266.83L405.91,265.45L406.26,264.10L406.62,262.78L406.98,261.49L407.34,260.24L407.70,259.02L408.06,257.84L408.42,256.69L408.78,255.57L409.14,254.50L409.50,253.46L409.86,252.47L410.22,251.51L410.57,250.59L410.93,249.71L411.29,248.88L411.65,248.08L412.01,247.33L412.37,246.62L412.73,245.96L413.09,245.33L413.45,244.76L413.81,244.22L414.17,243.74L414.53,243.29L414.89,242.90L415.24,242.55L415.60,242.24L415.96,241.99L416.32,241.77L416.68,241.61L417.04,241.49L417.40,241.42L417.76,241.40L418.12,241.42L418.48,241.49L418.84,241.61L419.20,241.77L419.55,241.99L419.91,242.24L420.27,242.55L420.63,242.90L420.99,243.29L421.35,243.74L421.71,244.22L422.07,244.76L422.43,245.33L422.79,245.96L423.15,246.62L423.51,247.33L423.86,248.08L424.22,248.88L424.58,249.71L424.94,250.59L425.30,251.51L425.66,252.47L426.02,253.46L426.38,254.50L426.74,255.57L427.10,256.69L427.46,257.84L427.82,259.02L428.18,260.24L428.53,261.49L428.89,262.78L429.25,264.10L429.61,265.45L429.97,266.83L430.33,268.24L430.69,269.68L431.05,271.14L431.41,272.64L431.77,274.16L432.13,275.70L432.49,277.27L432.84,278.86L433.20,280.47L433.56,282.10L433.92,283.75L434.28,285.42L434.64,287.10L435.00,288.80L435.36,290.52L435.72,292.24L436.08,293.99L436.44,295.74L436.80,297.50L437.16,299.27L437.51,301.05L437.87,302.83L438.23,304.62L438.59,306.41L438.95,308.20L439.31,310.00L439.67,311.80L440.03,313.59L440.39,315.38L440.75,317.17L441.11,318.95L441.47,320.73L441.82,322.50L442.18,324.26L442.54,326.01L442.90,327.76L443.26,329.48L443.62,331.20L443.98,332.90L444.34,334.58L444.70,336.25L445.06,337.90L445.42,339.53L445.78,341.14L446.14,342.73L446.49,344.30L446.85,345.84L447.21,347.36L447.57,348.86L447.93,350.32L448.29,351.76L448.65,353.17L449.01,354.55L449.37,355.90L449.73,357.22L450.09,358.51L450.45,359.76L450.80,360.98L451.16,362.16L451.52,363.31L451.88,364.43L452.24,365.50L452.60,366.54L452.96,367.53L453.32,368.49L453.68,369.41L454.04,370.29L454.40,371.12L454.76,371.92L455.11,372.67L455.47,373.38L455.83,374.04L456.19,374.67L456.55,375.24L456.91,375.78L457.27,376.26L457.63,376.71L457.99,377.10L458.35,377.45L458.71,377.76L459.07,378.01L459.43,378.23L459.78,378.39L460.14,378.51L460.50,378.58L460.86,378.60L461.22,378.58L461.58,378.51L461.94,378.39L462.30,378.23L462.66,378.01L463.02,377.76L463.38,377.45L463.74,377.10L464.09,376.71L464.45,376.26L464.81,375.78L465.17,375.24L465.53,374.67L465.89,374.04L466.25,373.38L466.61,372.67L466.97,371.92L467.33,371.12L467.69,370.29L468.05,369.41L468.41,368.49L468.76,367.53L469.12,366.54L469.48,365.50L469.84,364.43L470.20,363.31L470.56,362.16L470.92,360.98L471.28,359.76L471.64,358.51L472.00,357.22L472.36,355.90L472.72,354.55L473.07,353.17L473.43,351.76L473.79,350.32L474.15,348.86L474.51,347.36L474.87,345.84L475.23,344.30L475.59,342.73L475.95,341.14L476.31,339.53L476.67,337.90L477.03,336.25L477.39,334.58L477.74,332.90L478.10,331.20L478.46,329.48L478.82,327.76L479.18,326.01L479.54,324.26L479.90,322.50L480.26,320.73L480.62,318.95L480.98,317.17L481.34,315.38L481.70,313.59L482.05,311.80L482.41,310.00L482.77,308.20L483.13,306.41L483.49,304.62L483.85,302.83L484.21,301.05L484.57,299.27L484.93,297.50L485.29,295.74L485.65,293.99L486.01,292.24L486.36,290.52L486.72,288.80L487.08,287.10L487.44,285.42L487.80,283.75L488.16,282.10L488.52,280.47L488.88,278.86L489.24,277.27L489.60,275.70L489.96,274.16L490.32,272.64L490.68,271.14L491.03,269.68L491.39,268.24L491.75,266.83L492.11,265.45L492.47,264.10L492.83,262.78L493.19,261.49L493.55,260.24L493.91,259.02L494.27,257.84L494.63,256.69L494.99,255.57L495.34,254.50L495.70,253.46L496.06,252.47L496.42,251.51L496.78,250.59L497.14,249.71L497.50,248.88L497.86,248.08L498.22,247.33L498.58,246.62L498.94,245.96L499.30,245.33L499.66,244.76L500.01,244.22L500.37,243.74L500.73,243.29L501.09,242.90L501.45,242.55L501.81,242.24L502.17,241.99L502.53,241.77L502.89,241.61L503.25,241.49L503.61,241.42L503.97,241.40L504.32,241.42L504.68,241.49L505.04,241.61L505.40,241.77L505.76,241.99L506.12,242.24L506.48,242.55L506.84,242.90L507.20,243.29L507.56,243.74L507.92,244.22L508.28,244.76L508.64,245.33L508.99,245.96L509.35,246.62L509.71,247.33L510.07,248.08L510.43,248.88L510.79,249.71L511.15,250.59L511.51,251.51L511.87,252.47L512.23,253.46L512.59,254.50L512.95,255.57L513.30,256.69L513.66,257.84L514.02,259.02L514.38,260.24L514.74,261.49L515.10,262.78L515.46,264.10L515.82,265.45L516.18,266.83L516.54,268.24L516.90,269.68L517.26,271.14L517.61,272.64L517.97,274.16L518.33,275.70L518.69,277.27L519.05,278.86L519.41,280.47L519.77,282.10L520.13,283.75L520.49,285.42L520.85,287.10L521.21,288.80L521.57,290.52L521.93,292.24L522.28,293.99L522.64,295.74L523.00,297.50L523.36,299.27L523.72,301.05L524.08,302.83L524.44,304.62L524.80,306.41L525.16,308.20L525.52,310.00" stroke="#1463c2" stroke-width="2" fill="none"/><path d="M182.42,303.36L181.05,311.80L176.54,304.54" stroke="#1463c2" stroke-width="2" fill="none"/><path d="M324.12,237.91L331.91,241.42L323.73,243.89" stroke="#1463c2" stroke-width="2" fill="none"/><path d="M441.04,303.36L439.67,311.80L435.16,304.54" stroke="#1463c2" stroke-width="2" fill="none"/><text x="45" y="600" font-size="11" fill="#1463c2">r(theta)</text><text x="45" y="650" font-size="10">Equal axis scale; x: -0.503 .. 6.79; y: -1.5 .. 1.5</text></g><g transform="translate(0,665)"><rect width="100%" height="100%" fill="white"/><text x="35" y="25" font-size="15" fill="#172b4d">Polar curve</text><rect x="45" y="45" width="530" height="530" fill="#f6f8fc" stroke="#c5cfdd"/><path d="M45 289.32H575" stroke="#7e8a9d"/><text x="580" y="289.32" font-size="12">x</text><path d="M310.00 45V575" stroke="#7e8a9d"/><text x="315.00" y="55" font-size="12">y</text><path d="M310.00,289.32L307.04,289.32L304.08,289.35L301.12,289.39L298.16,289.44L295.21,289.51L292.26,289.59L289.31,289.69L286.37,289.81L283.43,289.94L280.49,290.09L277.56,290.25L274.64,290.43L271.72,290.62L268.81,290.83L265.91,291.05L263.02,291.28L260.14,291.54L257.26,291.80L254.40,292.08L251.55,292.38L248.71,292.69L245.88,293.01L243.06,293.35L240.25,293.70L237.46,294.07L234.68,294.45L231.92,294.84L229.17,295.25L226.44,295.67L223.72,296.11L221.02,296.55L218.34,297.01L215.67,297.49L213.02,297.97L210.40,298.47L207.78,298.98L205.19,299.50L202.62,300.03L200.07,300.58L197.54,301.14L195.04,301.70L192.55,302.28L190.09,302.87L187.65,303.47L185.23,304.08L182.83,304.70L180.46,305.34L178.12,305.98L175.80,306.63L173.51,307.29L171.24,307.95L168.99,308.63L166.78,309.32L164.59,310.01L162.43,310.71L160.30,311.42L158.19,312.14L156.12,312.86L154.07,313.59L152.06,314.33L150.07,315.08L148.11,315.83L146.19,316.58L144.29,317.34L142.43,318.11L140.59,318.88L138.79,319.66L137.02,320.44L135.29,321.22L133.59,322.01L131.92,322.80L130.28,323.60L128.68,324.40L127.11,325.20L125.57,326.00L124.07,326.80L122.61,327.61L121.18,328.42L119.79,329.23L118.43,330.04L117.10,330.85L115.82,331.65L114.56,332.46L113.35,333.27L112.17,334.08L111.03,334.89L109.93,335.69L108.86,336.49L107.83,337.29L106.84,338.09L105.88,338.89L104.96,339.68L104.08,340.47L103.24,341.25L102.44,342.03L101.67,342.80L100.95,343.58L100.26,344.34L99.61,345.10L99.00,345.85L98.42,346.60L97.89,347.34L97.40,348.08L96.94,348.80L96.52,349.52L96.14,350.23L95.80,350.94L95.50,351.63L95.24,352.32L95.02,353.00L94.83,353.66L94.69,354.32L94.58,354.97L94.51,355.61L94.48,356.24L94.49,356.85L94.54,357.46L94.63,358.05L94.75,358.63L94.92,359.20L95.12,359.76L95.36,360.30L95.64,360.83L95.95,361.35L96.31,361.85L96.70,362.34L97.13,362.82L97.60,363.28L98.10,363.73L98.64,364.16L99.22,364.58L99.84,364.98L100.49,365.36L101.18,365.73L101.90,366.09L102.66,366.42L103.46,366.74L104.29,367.05L105.16,367.33L106.06,367.60L107.00,367.85L107.97,368.08L108.98,368.30L110.02,368.49L111.10,368.67L112.20,368.83L113.35,368.97L114.52,369.09L115.73,369.19L116.97,369.27L118.24,369.33L119.54,369.38L120.88,369.40L122.24,369.40L123.64,369.38L125.07,369.34L126.53,369.28L128.02,369.20L129.53,369.10L131.08,368.98L132.65,368.83L134.26,368.67L135.89,368.48L137.55,368.27L139.23,368.04L140.95,367.79L142.69,367.51L144.45,367.22L146.24,366.90L148.06,366.56L149.90,366.19L151.77,365.81L153.66,365.40L155.57,364.97L157.50,364.52L159.46,364.04L161.44,363.54L163.45,363.02L165.47,362.48L167.52,361.91L169.58,361.33L171.67,360.71L173.77,360.08L175.90,359.42L178.04,358.74L180.20,358.04L182.38,357.32L184.57,356.57L186.78,355.80L189.01,355.01L191.25,354.19L193.51,353.35L195.79,352.49L198.08,351.61L200.38,350.71L202.69,349.78L205.02,348.83L207.36,347.86L209.71,346.87L212.07,345.85L214.45,344.82L216.83,343.76L219.22,342.68L221.63,341.58L224.04,340.46L226.46,339.31L228.89,338.15L231.32,336.97L233.76,335.76L236.21,334.54L238.66,333.29L241.12,332.02L243.58,330.74L246.05,329.43L248.52,328.11L250.99,326.76L253.47,325.40L255.95,324.02L258.43,322.61L260.91,321.19L263.39,319.76L265.87,318.30L268.36,316.83L270.84,315.34L273.32,313.83L275.79,312.30L278.27,310.76L280.74,309.20L283.21,307.63L285.67,306.04L288.13,304.43L290.59,302.81L293.04,301.17L295.48,299.52L297.92,297.85L300.35,296.17L302.78,294.48L305.19,292.77L307.60,291.05L310.00,289.32L312.39,287.57L314.77,285.81L317.14,284.04L319.50,282.26L321.85,280.47L324.19,278.66L326.52,276.85L328.83,275.02L331.13,273.19L333.42,271.35L335.69,269.49L337.95,267.63L340.20,265.76L342.43,263.89L344.65,262.00L346.85,260.11L349.03,258.21L351.20,256.31L353.35,254.40L355.49,252.48L357.61,250.56L359.70,248.63L361.79,246.70L363.85,244.77L365.89,242.83L367.91,240.89L369.92,238.95L371.90,237.00L373.87,235.06L375.81,233.11L377.73,231.16L379.63,229.21L381.51,227.26L383.37,225.31L385.20,223.36L387.01,221.42L388.80,219.47L390.57,217.53L392.31,215.59L394.03,213.65L395.73,211.72L397.40,209.79L399.04,207.86L400.67,205.94L402.26,204.03L403.83,202.12L405.38,200.22L406.90,198.32L408.40,196.43L409.86,194.55L411.31,192.67L412.72,190.81L414.11,188.95L415.47,187.10L416.81,185.27L418.12,183.44L419.40,181.62L420.65,179.82L421.88,178.02L423.08,176.24L424.25,174.47L425.39,172.71L426.50,170.97L427.59,169.24L428.65,167.52L429.67,165.82L430.67,164.14L431.65,162.46L432.59,160.81L433.50,159.17L434.39,157.55L435.25,155.94L436.07,154.36L436.87,152.79L437.64,151.23L438.38,149.70L439.09,148.19L439.77,146.70L440.43,145.22L441.05,143.77L441.65,142.34L442.21,140.92L442.75,139.53L443.26,138.17L443.73,136.82L444.18,135.50L444.61,134.20L445.00,132.92L445.36,131.67L445.69,130.44L446.00,129.23L446.28,128.05L446.52,126.90L446.74,125.77L446.94,124.67L447.10,123.59L447.23,122.54L447.34,121.52L447.42,120.52L447.47,119.55L447.50,118.61L447.49,117.70L447.46,116.81L447.40,115.95L447.32,115.13L447.21,114.33L447.07,113.56L446.90,112.82L446.71,112.11L446.49,111.43L446.25,110.78L445.98,110.17L445.69,109.58L445.37,109.02L445.02,108.50L444.65,108.01L444.26,107.54L443.84,107.12L443.40,106.72L442.93,106.35L442.44,106.02L441.92,105.72L441.39,105.46L440.83,105.23L440.24,105.03L439.64,104.86L439.01,104.73L438.36,104.63L437.69,104.56L437.00,104.53L436.28,104.54L435.55,104.57L434.80,104.64L434.02,104.75L433.23,104.89L432.42,105.07L431.58,105.27L430.73,105.52L429.86,105.80L428.97,106.11L428.07,106.46L427.15,106.84L426.20,107.26L425.25,107.71L424.27,108.20L423.28,108.73L422.28,109.28L421.26,109.88L420.22,110.50L419.17,111.17L418.10,111.86L417.02,112.60L415.93,113.36L414.82,114.17L413.71,115.00L412.57,115.87L411.43,116.78L410.27,117.72L409.11,118.69L407.93,119.70L406.74,120.74L405.54,121.82L404.33,122.93L403.11,124.08L401.88,125.25L400.64,126.46L399.40,127.71L398.14,128.99L396.88,130.30L395.61,131.64L394.33,133.02L393.05,134.42L391.76,135.86L390.47,137.34L389.17,138.84L387.86,140.38L386.55,141.94L385.24,143.54L383.92,145.17L382.60,146.83L381.27,148.52L379.95,150.24L378.62,151.99L377.28,153.77L375.95,155.58L374.62,157.42L373.28,159.29L371.94,161.18L370.61,163.10L369.27,165.05L367.93,167.03L366.60,169.04L365.26,171.07L363.93,173.13L362.60,175.21L361.27,177.32L359.95,179.46L358.63,181.62L357.31,183.81L355.99,186.02L354.68,188.25L353.37,190.51L352.07,192.79L350.78,195.09L349.48,197.41L348.20,199.76L346.92,202.13L345.65,204.52L344.38,206.93L343.12,209.36L341.87,211.81L340.62,214.28L339.39,216.77L338.16,219.27L336.94,221.80L335.73,224.34L334.52,226.90L333.33,229.47L332.15,232.06L330.98,234.67L329.81,237.29L328.66,239.93L327.52,242.58L326.39,245.24L325.27,247.92L324.16,250.61L323.07,253.32L321.98,256.03L320.91,258.75L319.85,261.49L318.81,264.24L317.77,266.99L316.75,269.76L315.75,272.53L314.75,275.31L313.78,278.10L312.81,280.89L311.86,283.70L310.92,286.50L310.00,289.32L309.09,292.13L308.20,294.96L307.32,297.78L306.46,300.61L305.61,303.44L304.78,306.27L303.97,309.11L303.17,311.95L302.38,314.78L301.62,317.62L300.86,320.45L300.13,323.29L299.41,326.12L298.71,328.95L298.02,331.78L297.36,334.60L296.70,337.42L296.07,340.24L295.45,343.05L294.85,345.85L294.27,348.65L293.70,351.44L293.15,354.23L292.62,357.00L292.11,359.77L291.61,362.53L291.13,365.28L290.67,368.02L290.22,370.75L289.80,373.47L289.39,376.18L289.00,378.87L288.62,381.55L288.26,384.22L287.92,386.87L287.60,389.51L287.30,392.14L287.01,394.75L286.74,397.34L286.49,399.92L286.26,402.48L286.04,405.02L285.84,407.55L285.65,410.06L285.49,412.54L285.34,415.01L285.21,417.46L285.09,419.89L284.99,422.30L284.91,424.68L284.85,427.05L284.80,429.39L284.76,431.71L284.75,434.00L284.75,436.27L284.76,438.52L284.80,440.74L284.84,442.94L284.91,445.11L284.98,447.26L285.08,449.38L285.19,451.47L285.31,453.54L285.45,455.58L285.60,457.59L285.77,459.57L285.95,461.52L286.15,463.44L286.36,465.34L286.58,467.20L286.82,469.03L287.07,470.83L287.33,472.60L287.61,474.34L287.90,476.05L288.20,477.73L288.51,479.37L288.84,480.98L289.18,482.55L289.53,484.10L289.89,485.60L290.26,487.08L290.64,488.52L291.04,489.92L291.44,491.29L291.85,492.63L292.28,493.93L292.71,495.19L293.16,496.42L293.61,497.61L294.07,498.76L294.54,499.88L295.01,500.96L295.50,502.00L295.99,503.01L296.49,503.97L297.00,504.90L297.52,505.80L298.04,506.65L298.57,507.46L299.10,508.24L299.64,508.97L300.19,509.67L300.74,510.33L301.29,510.95L301.85,511.53L302.42,512.07L302.98,512.57L303.56,513.03L304.13,513.46L304.71,513.84L305.29,514.18L305.87,514.48L306.46,514.74L307.05,514.96L307.64,515.15L308.23,515.29L308.82,515.39L309.41,515.45L310.00,515.47L310.59,515.45L311.18,515.39L311.77,515.29L312.36,515.15L312.95,514.96L313.54,514.74L314.13,514.48L314.71,514.18L315.29,513.84L315.87,513.46L316.44,513.03L317.02,512.57L317.58,512.07L318.15,511.53L318.71,510.95L319.26,510.33L319.81,509.67L320.36,508.97L320.90,508.24L321.43,507.46L321.96,506.65L322.48,505.80L323.00,504.90L323.51,503.97L324.01,503.01L324.50,502.00L324.99,500.96L325.46,499.88L325.93,498.76L326.39,497.61L326.84,496.42L327.29,495.19L327.72,493.93L328.15,492.63L328.56,491.29L328.96,489.92L329.36,488.52L329.74,487.08L330.11,485.60L330.47,484.10L330.82,482.55L331.16,480.98L331.49,479.37L331.80,477.73L332.10,476.05L332.39,474.34L332.67,472.60L332.93,470.83L333.18,469.03L333.42,467.20L333.64,465.34L333.85,463.44L334.05,461.52L334.23,459.57L334.40,457.59L334.55,455.58L334.69,453.54L334.81,451.47L334.92,449.38L335.02,447.26L335.09,445.11L335.16,442.94L335.20,440.74L335.24,438.52L335.25,436.27L335.25,434.00L335.24,431.71L335.20,429.39L335.15,427.05L335.09,424.68L335.01,422.30L334.91,419.89L334.79,417.46L334.66,415.01L334.51,412.54L334.35,410.06L334.16,407.55L333.96,405.02L333.74,402.48L333.51,399.92L333.26,397.34L332.99,394.75L332.70,392.14L332.40,389.51L332.08,386.87L331.74,384.22L331.38,381.55L331.00,378.87L330.61,376.18L330.20,373.47L329.78,370.75L329.33,368.02L328.87,365.28L328.39,362.53L327.89,359.77L327.38,357.00L326.85,354.23L326.30,351.44L325.73,348.65L325.15,345.85L324.55,343.05L323.93,340.24L323.30,337.42L322.64,334.60L321.98,331.78L321.29,328.95L320.59,326.12L319.87,323.29L319.14,320.45L318.38,317.62L317.62,314.78L316.83,311.95L316.03,309.11L315.22,306.27L314.39,303.44L313.54,300.61L312.68,297.78L311.80,294.96L310.91,292.13L310.00,289.32L309.08,286.50L308.14,283.70L307.19,280.89L306.22,278.10L305.25,275.31L304.25,272.53L303.25,269.76L302.23,266.99L301.19,264.24L300.15,261.49L299.09,258.75L298.02,256.03L296.93,253.32L295.84,250.61L294.73,247.92L293.61,245.24L292.48,242.58L291.34,239.93L290.19,237.29L289.02,234.67L287.85,232.06L286.67,229.47L285.48,226.90L284.27,224.34L283.06,221.80L281.84,219.27L280.61,216.77L279.38,214.28L278.13,211.81L276.88,209.36L275.62,206.93L274.35,204.52L273.08,202.13L271.80,199.76L270.52,197.41L269.22,195.09L267.93,192.79L266.63,190.51L265.32,188.25L264.01,186.02L262.69,183.81L261.37,181.62L260.05,179.46L258.73,177.32L257.40,175.21L256.07,173.13L254.74,171.07L253.40,169.04L252.07,167.03L250.73,165.05L249.39,163.10L248.06,161.18L246.72,159.29L245.38,157.42L244.05,155.58L242.72,153.77L241.38,151.99L240.05,150.24L238.73,148.52L237.40,146.83L236.08,145.17L234.76,143.54L233.45,141.94L232.14,140.38L230.83,138.84L229.53,137.34L228.24,135.86L226.95,134.42L225.67,133.02L224.39,131.64L223.12,130.30L221.86,128.99L220.60,127.71L219.36,126.46L218.12,125.25L216.89,124.08L215.67,122.93L214.46,121.82L213.26,120.74L212.07,119.70L210.89,118.69L209.73,117.72L208.57,116.78L207.43,115.87L206.29,115.00L205.18,114.17L204.07,113.36L202.98,112.60L201.90,111.86L200.83,111.17L199.78,110.50L198.74,109.88L197.72,109.28L196.72,108.73L195.73,108.20L194.75,107.71L193.80,107.26L192.85,106.84L191.93,106.46L191.03,106.11L190.14,105.80L189.27,105.52L188.42,105.27L187.58,105.07L186.77,104.89L185.98,104.75L185.20,104.64L184.45,104.57L183.72,104.54L183.00,104.53L182.31,104.56L181.64,104.63L180.99,104.73L180.36,104.86L179.76,105.03L179.17,105.23L178.61,105.46L178.08,105.72L177.56,106.02L177.07,106.35L176.60,106.72L176.16,107.12L175.74,107.54L175.35,108.01L174.98,108.50L174.63,109.02L174.31,109.58L174.02,110.17L173.75,110.78L173.51,111.43L173.29,112.11L173.10,112.82L172.93,113.56L172.79,114.33L172.68,115.13L172.60,115.95L172.54,116.81L172.51,117.70L172.50,118.61L172.53,119.55L172.58,120.52L172.66,121.52L172.77,122.54L172.90,123.59L173.06,124.67L173.26,125.77L173.48,126.90L173.72,128.05L174.00,129.23L174.31,130.44L174.64,131.67L175.00,132.92L175.39,134.20L175.82,135.50L176.27,136.82L176.74,138.17L177.25,139.53L177.79,140.92L178.35,142.34L178.95,143.77L179.57,145.22L180.23,146.70L180.91,148.19L181.62,149.70L182.36,151.23L183.13,152.79L183.93,154.36L184.75,155.94L185.61,157.55L186.50,159.17L187.41,160.81L188.35,162.46L189.33,164.14L190.33,165.82L191.35,167.52L192.41,169.24L193.50,170.97L194.61,172.71L195.75,174.47L196.92,176.24L198.12,178.02L199.35,179.82L200.60,181.62L201.88,183.44L203.19,185.27L204.53,187.10L205.89,188.95L207.28,190.81L208.69,192.67L210.14,194.55L211.60,196.43L213.10,198.32L214.62,200.22L216.17,202.12L217.74,204.03L219.33,205.94L220.96,207.86L222.60,209.79L224.27,211.72L225.97,213.65L227.69,215.59L229.43,217.53L231.20,219.47L232.99,221.42L234.80,223.36L236.63,225.31L238.49,227.26L240.37,229.21L242.27,231.16L244.19,233.11L246.13,235.06L248.10,237.00L250.08,238.95L252.09,240.89L254.11,242.83L256.15,244.77L258.21,246.70L260.30,248.63L262.39,250.56L264.51,252.48L266.65,254.40L268.80,256.31L270.97,258.21L273.15,260.11L275.35,262.00L277.57,263.89L279.80,265.76L282.05,267.63L284.31,269.49L286.58,271.35L288.87,273.19L291.17,275.02L293.48,276.85L295.81,278.66L298.15,280.47L300.50,282.26L302.86,284.04L305.23,285.81L307.61,287.57L310.00,289.32L312.40,291.05L314.81,292.77L317.22,294.48L319.65,296.17L322.08,297.85L324.52,299.52L326.96,301.17L329.41,302.81L331.87,304.43L334.33,306.04L336.79,307.63L339.26,309.20L341.73,310.76L344.21,312.30L346.68,313.83L349.16,315.34L351.64,316.83L354.13,318.30L356.61,319.76L359.09,321.19L361.57,322.61L364.05,324.02L366.53,325.40L369.01,326.76L371.48,328.11L373.95,329.43L376.42,330.74L378.88,332.02L381.34,333.29L383.79,334.54L386.24,335.76L388.68,336.97L391.11,338.15L393.54,339.31L395.96,340.46L398.37,341.58L400.78,342.68L403.17,343.76L405.55,344.82L407.93,345.85L410.29,346.87L412.64,347.86L414.98,348.83L417.31,349.78L419.62,350.71L421.92,351.61L424.21,352.49L426.49,353.35L428.75,354.19L430.99,355.01L433.22,355.80L435.43,356.57L437.62,357.32L439.80,358.04L441.96,358.74L444.10,359.42L446.23,360.08L448.33,360.71L450.42,361.33L452.48,361.91L454.53,362.48L456.55,363.02L458.56,363.54L460.54,364.04L462.50,364.52L464.43,364.97L466.34,365.40L468.23,365.81L470.10,366.19L471.94,366.56L473.76,366.90L475.55,367.22L477.31,367.51L479.05,367.79L480.77,368.04L482.45,368.27L484.11,368.48L485.74,368.67L487.35,368.83L488.92,368.98L490.47,369.10L491.98,369.20L493.47,369.28L494.93,369.34L496.36,369.38L497.76,369.40L499.12,369.40L500.46,369.38L501.76,369.33L503.03,369.27L504.27,369.19L505.48,369.09L506.65,368.97L507.80,368.83L508.90,368.67L509.98,368.49L511.02,368.30L512.03,368.08L513.00,367.85L513.94,367.60L514.84,367.33L515.71,367.05L516.54,366.74L517.34,366.42L518.10,366.09L518.82,365.73L519.51,365.36L520.16,364.98L520.78,364.58L521.36,364.16L521.90,363.73L522.40,363.28L522.87,362.82L523.30,362.34L523.69,361.85L524.05,361.35L524.36,360.83L524.64,360.30L524.88,359.76L525.08,359.20L525.25,358.63L525.37,358.05L525.46,357.46L525.51,356.85L525.52,356.24L525.49,355.61L525.42,354.97L525.31,354.32L525.17,353.66L524.98,353.00L524.76,352.32L524.50,351.63L524.20,350.94L523.86,350.23L523.48,349.52L523.06,348.80L522.60,348.08L522.11,347.34L521.58,346.60L521.00,345.85L520.39,345.10L519.74,344.34L519.05,343.58L518.33,342.80L517.56,342.03L516.76,341.25L515.92,340.47L515.04,339.68L514.12,338.89L513.16,338.09L512.17,337.29L511.14,336.49L510.07,335.69L508.97,334.89L507.83,334.08L506.65,333.27L505.44,332.46L504.18,331.65L502.90,330.85L501.57,330.04L500.21,329.23L498.82,328.42L497.39,327.61L495.93,326.80L494.43,326.00L492.89,325.20L491.32,324.40L489.72,323.60L488.08,322.80L486.41,322.01L484.71,321.22L482.98,320.44L481.21,319.66L479.41,318.88L477.57,318.11L475.71,317.34L473.81,316.58L471.89,315.83L469.93,315.08L467.94,314.33L465.93,313.59L463.88,312.86L461.81,312.14L459.70,311.42L457.57,310.71L455.41,310.01L453.22,309.32L451.01,308.63L448.76,307.95L446.49,307.29L444.20,306.63L441.88,305.98L439.54,305.34L437.17,304.70L434.77,304.08L432.35,303.47L429.91,302.87L427.45,302.28L424.96,301.70L422.46,301.14L419.93,300.58L417.38,300.03L414.81,299.50L412.22,298.98L409.60,298.47L406.98,297.97L404.33,297.49L401.66,297.01L398.98,296.55L396.28,296.11L393.56,295.67L390.83,295.25L388.08,294.84L385.32,294.45L382.54,294.07L379.75,293.70L376.94,293.35L374.12,293.01L371.29,292.69L368.45,292.38L365.60,292.08L362.74,291.80L359.86,291.54L356.98,291.28L354.09,291.05L351.19,290.83L348.28,290.62L345.36,290.43L342.44,290.25L339.51,290.09L336.57,289.94L333.63,289.81L330.69,289.69L327.74,289.59L324.79,289.51L321.84,289.44L318.88,289.39L315.92,289.35L312.96,289.32L310.00,289.32L307.04,289.32L304.08,289.35L301.12,289.39L298.16,289.44L295.21,289.51L292.26,289.59L289.31,289.69L286.37,289.81L283.43,289.94L280.49,290.09L277.56,290.25L274.64,290.43L271.72,290.62L268.81,290.83L265.91,291.05L263.02,291.28L260.14,291.54L257.26,291.80L254.40,292.08L251.55,292.38L248.71,292.69L245.88,293.01L243.06,293.35L240.25,293.70L237.46,294.07L234.68,294.45L231.92,294.84L229.17,295.25L226.44,295.67L223.72,296.11L221.02,296.55L218.34,297.01L215.67,297.49L213.02,297.97L210.40,298.47L207.78,298.98L205.19,299.50L202.62,300.03L200.07,300.58L197.54,301.14L195.04,301.70L192.55,302.28L190.09,302.87L187.65,303.47L185.23,304.08L182.83,304.70L180.46,305.34L178.12,305.98L175.80,306.63L173.51,307.29L171.24,307.95L168.99,308.63L166.78,309.32L164.59,310.01L162.43,310.71L160.30,311.42L158.19,312.14L156.12,312.86L154.07,313.59L152.06,314.33L150.07,315.08L148.11,315.83L146.19,316.58L144.29,317.34L142.43,318.11L140.59,318.88L138.79,319.66L137.02,320.44L135.29,321.22L133.59,322.01L131.92,322.80L130.28,323.60L128.68,324.40L127.11,325.20L125.57,326.00L124.07,326.80L122.61,327.61L121.18,328.42L119.79,329.23L118.43,330.04L117.10,330.85L115.82,331.65L114.56,332.46L113.35,333.27L112.17,334.08L111.03,334.89L109.93,335.69L108.86,336.49L107.83,337.29L106.84,338.09L105.88,338.89L104.96,339.68L104.08,340.47L103.24,341.25L102.44,342.03L101.67,342.80L100.95,343.58L100.26,344.34L99.61,345.10L99.00,345.85L98.42,346.60L97.89,347.34L97.40,348.08L96.94,348.80L96.52,349.52L96.14,350.23L95.80,350.94L95.50,351.63L95.24,352.32L95.02,353.00L94.83,353.66L94.69,354.32L94.58,354.97L94.51,355.61L94.48,356.24L94.49,356.85L94.54,357.46L94.63,358.05L94.75,358.63L94.92,359.20L95.12,359.76L95.36,360.30L95.64,360.83L95.95,361.35L96.31,361.85L96.70,362.34L97.13,362.82L97.60,363.28L98.10,363.73L98.64,364.16L99.22,364.58L99.84,364.98L100.49,365.36L101.18,365.73L101.90,366.09L102.66,366.42L103.46,366.74L104.29,367.05L105.16,367.33L106.06,367.60L107.00,367.85L107.97,368.08L108.98,368.30L110.02,368.49L111.10,368.67L112.20,368.83L113.35,368.97L114.52,369.09L115.73,369.19L116.97,369.27L118.24,369.33L119.54,369.38L120.88,369.40L122.24,369.40L123.64,369.38L125.07,369.34L126.53,369.28L128.02,369.20L129.53,369.10L131.08,368.98L132.65,368.83L134.26,368.67L135.89,368.48L137.55,368.27L139.23,368.04L140.95,367.79L142.69,367.51L144.45,367.22L146.24,366.90L148.06,366.56L149.90,366.19L151.77,365.81L153.66,365.40L155.57,364.97L157.50,364.52L159.46,364.04L161.44,363.54L163.45,363.02L165.47,362.48L167.52,361.91L169.58,361.33L171.67,360.71L173.77,360.08L175.90,359.42L178.04,358.74L180.20,358.04L182.38,357.32L184.57,356.57L186.78,355.80L189.01,355.01L191.25,354.19L193.51,353.35L195.79,352.49L198.08,351.61L200.38,350.71L202.69,349.78L205.02,348.83L207.36,347.86L209.71,346.87L212.07,345.85L214.45,344.82L216.83,343.76L219.22,342.68L221.63,341.58L224.04,340.46L226.46,339.31L228.89,338.15L231.32,336.97L233.76,335.76L236.21,334.54L238.66,333.29L241.12,332.02L243.58,330.74L246.05,329.43L248.52,328.11L250.99,326.76L253.47,325.40L255.95,324.02L258.43,322.61L260.91,321.19L263.39,319.76L265.87,318.30L268.36,316.83L270.84,315.34L273.32,313.83L275.79,312.30L278.27,310.76L280.74,309.20L283.21,307.63L285.67,306.04L288.13,304.43L290.59,302.81L293.04,301.17L295.48,299.52L297.92,297.85L300.35,296.17L302.78,294.48L305.19,292.77L307.60,291.05L310.00,289.32L312.39,287.57L314.77,285.81L317.14,284.04L319.50,282.26L321.85,280.47L324.19,278.66L326.52,276.85L328.83,275.02L331.13,273.19L333.42,271.35L335.69,269.49L337.95,267.63L340.20,265.76L342.43,263.89L344.65,262.00L346.85,260.11L349.03,258.21L351.20,256.31L353.35,254.40L355.49,252.48L357.61,250.56L359.70,248.63L361.79,246.70L363.85,244.77L365.89,242.83L367.91,240.89L369.92,238.95L371.90,237.00L373.87,235.06L375.81,233.11L377.73,231.16L379.63,229.21L381.51,227.26L383.37,225.31L385.20,223.36L387.01,221.42L388.80,219.47L390.57,217.53L392.31,215.59L394.03,213.65L395.73,211.72L397.40,209.79L399.04,207.86L400.67,205.94L402.26,204.03L403.83,202.12L405.38,200.22L406.90,198.32L408.40,196.43L409.86,194.55L411.31,192.67L412.72,190.81L414.11,188.95L415.47,187.10L416.81,185.27L418.12,183.44L419.40,181.62L420.65,179.82L421.88,178.02L423.08,176.24L424.25,174.47L425.39,172.71L426.50,170.97L427.59,169.24L428.65,167.52L429.67,165.82L430.67,164.14L431.65,162.46L432.59,160.81L433.50,159.17L434.39,157.55L435.25,155.94L436.07,154.36L436.87,152.79L437.64,151.23L438.38,149.70L439.09,148.19L439.77,146.70L440.43,145.22L441.05,143.77L441.65,142.34L442.21,140.92L442.75,139.53L443.26,138.17L443.73,136.82L444.18,135.50L444.61,134.20L445.00,132.92L445.36,131.67L445.69,130.44L446.00,129.23L446.28,128.05L446.52,126.90L446.74,125.77L446.94,124.67L447.10,123.59L447.23,122.54L447.34,121.52L447.42,120.52L447.47,119.55L447.50,118.61L447.49,117.70L447.46,116.81L447.40,115.95L447.32,115.13L447.21,114.33L447.07,113.56L446.90,112.82L446.71,112.11L446.49,111.43L446.25,110.78L445.98,110.17L445.69,109.58L445.37,109.02L445.02,108.50L444.65,108.01L444.26,107.54L443.84,107.12L443.40,106.72L442.93,106.35L442.44,106.02L441.92,105.72L441.39,105.46L440.83,105.23L440.24,105.03L439.64,104.86L439.01,104.73L438.36,104.63L437.69,104.56L437.00,104.53L436.28,104.54L435.55,104.57L434.80,104.64L434.02,104.75L433.23,104.89L432.42,105.07L431.58,105.27L430.73,105.52L429.86,105.80L428.97,106.11L428.07,106.46L427.15,106.84L426.20,107.26L425.25,107.71L424.27,108.20L423.28,108.73L422.28,109.28L421.26,109.88L420.22,110.50L419.17,111.17L418.10,111.86L417.02,112.60L415.93,113.36L414.82,114.17L413.71,115.00L412.57,115.87L411.43,116.78L410.27,117.72L409.11,118.69L407.93,119.70L406.74,120.74L405.54,121.82L404.33,122.93L403.11,124.08L401.88,125.25L400.64,126.46L399.40,127.71L398.14,128.99L396.88,130.30L395.61,131.64L394.33,133.02L393.05,134.42L391.76,135.86L390.47,137.34L389.17,138.84L387.86,140.38L386.55,141.94L385.24,143.54L383.92,145.17L382.60,146.83L381.27,148.52L379.95,150.24L378.62,151.99L377.28,153.77L375.95,155.58L374.62,157.42L373.28,159.29L371.94,161.18L370.61,163.10L369.27,165.05L367.93,167.03L366.60,169.04L365.26,171.07L363.93,173.13L362.60,175.21L361.27,177.32L359.95,179.46L358.63,181.62L357.31,183.81L355.99,186.02L354.68,188.25L353.37,190.51L352.07,192.79L350.78,195.09L349.48,197.41L348.20,199.76L346.92,202.13L345.65,204.52L344.38,206.93L343.12,209.36L341.87,211.81L340.62,214.28L339.39,216.77L338.16,219.27L336.94,221.80L335.73,224.34L334.52,226.90L333.33,229.47L332.15,232.06L330.98,234.67L329.81,237.29L328.66,239.93L327.52,242.58L326.39,245.24L325.27,247.92L324.16,250.61L323.07,253.32L321.98,256.03L320.91,258.75L319.85,261.49L318.81,264.24L317.77,266.99L316.75,269.76L315.75,272.53L314.75,275.31L313.78,278.10L312.81,280.89L311.86,283.70L310.92,286.50L310.00,289.32L309.09,292.13L308.20,294.96L307.32,297.78L306.46,300.61L305.61,303.44L304.78,306.27L303.97,309.11L303.17,311.95L302.38,314.78L301.62,317.62L300.86,320.45L300.13,323.29L299.41,326.12L298.71,328.95L298.02,331.78L297.36,334.60L296.70,337.42L296.07,340.24L295.45,343.05L294.85,345.85L294.27,348.65L293.70,351.44L293.15,354.23L292.62,357.00L292.11,359.77L291.61,362.53L291.13,365.28L290.67,368.02L290.22,370.75L289.80,373.47L289.39,376.18L289.00,378.87L288.62,381.55L288.26,384.22L287.92,386.87L287.60,389.51L287.30,392.14L287.01,394.75L286.74,397.34L286.49,399.92L286.26,402.48L286.04,405.02L285.84,407.55L285.65,410.06L285.49,412.54L285.34,415.01L285.21,417.46L285.09,419.89L284.99,422.30L284.91,424.68L284.85,427.05L284.80,429.39L284.76,431.71L284.75,434.00L284.75,436.27L284.76,438.52L284.80,440.74L284.84,442.94L284.91,445.11L284.98,447.26L285.08,449.38L285.19,451.47L285.31,453.54L285.45,455.58L285.60,457.59L285.77,459.57L285.95,461.52L286.15,463.44L286.36,465.34L286.58,467.20L286.82,469.03L287.07,470.83L287.33,472.60L287.61,474.34L287.90,476.05L288.20,477.73L288.51,479.37L288.84,480.98L289.18,482.55L289.53,484.10L289.89,485.60L290.26,487.08L290.64,488.52L291.04,489.92L291.44,491.29L291.85,492.63L292.28,493.93L292.71,495.19L293.16,496.42L293.61,497.61L294.07,498.76L294.54,499.88L295.01,500.96L295.50,502.00L295.99,503.01L296.49,503.97L297.00,504.90L297.52,505.80L298.04,506.65L298.57,507.46L299.10,508.24L299.64,508.97L300.19,509.67L300.74,510.33L301.29,510.95L301.85,511.53L302.42,512.07L302.98,512.57L303.56,513.03L304.13,513.46L304.71,513.84L305.29,514.18L305.87,514.48L306.46,514.74L307.05,514.96L307.64,515.15L308.23,515.29L308.82,515.39L309.41,515.45L310.00,515.47L310.59,515.45L311.18,515.39L311.77,515.29L312.36,515.15L312.95,514.96L313.54,514.74L314.13,514.48L314.71,514.18L315.29,513.84L315.87,513.46L316.44,513.03L317.02,512.57L317.58,512.07L318.15,511.53L318.71,510.95L319.26,510.33L319.81,509.67L320.36,508.97L320.90,508.24L321.43,507.46L321.96,506.65L322.48,505.80L323.00,504.90L323.51,503.97L324.01,503.01L324.50,502.00L324.99,500.96L325.46,499.88L325.93,498.76L326.39,497.61L326.84,496.42L327.29,495.19L327.72,493.93L328.15,492.63L328.56,491.29L328.96,489.92L329.36,488.52L329.74,487.08L330.11,485.60L330.47,484.10L330.82,482.55L331.16,480.98L331.49,479.37L331.80,477.73L332.10,476.05L332.39,474.34L332.67,472.60L332.93,470.83L333.18,469.03L333.42,467.20L333.64,465.34L333.85,463.44L334.05,461.52L334.23,459.57L334.40,457.59L334.55,455.58L334.69,453.54L334.81,451.47L334.92,449.38L335.02,447.26L335.09,445.11L335.16,442.94L335.20,440.74L335.24,438.52L335.25,436.27L335.25,434.00L335.24,431.71L335.20,429.39L335.15,427.05L335.09,424.68L335.01,422.30L334.91,419.89L334.79,417.46L334.66,415.01L334.51,412.54L334.35,410.06L334.16,407.55L333.96,405.02L333.74,402.48L333.51,399.92L333.26,397.34L332.99,394.75L332.70,392.14L332.40,389.51L332.08,386.87L331.74,384.22L331.38,381.55L331.00,378.87L330.61,376.18L330.20,373.47L329.78,370.75L329.33,368.02L328.87,365.28L328.39,362.53L327.89,359.77L327.38,357.00L326.85,354.23L326.30,351.44L325.73,348.65L325.15,345.85L324.55,343.05L323.93,340.24L323.30,337.42L322.64,334.60L321.98,331.78L321.29,328.95L320.59,326.12L319.87,323.29L319.14,320.45L318.38,317.62L317.62,314.78L316.83,311.95L316.03,309.11L315.22,306.27L314.39,303.44L313.54,300.61L312.68,297.78L311.80,294.96L310.91,292.13L310.00,289.32L309.08,286.50L308.14,283.70L307.19,280.89L306.22,278.10L305.25,275.31L304.25,272.53L303.25,269.76L302.23,266.99L301.19,264.24L300.15,261.49L299.09,258.75L298.02,256.03L296.93,253.32L295.84,250.61L294.73,247.92L293.61,245.24L292.48,242.58L291.34,239.93L290.19,237.29L289.02,234.67L287.85,232.06L286.67,229.47L285.48,226.90L284.27,224.34L283.06,221.80L281.84,219.27L280.61,216.77L279.38,214.28L278.13,211.81L276.88,209.36L275.62,206.93L274.35,204.52L273.08,202.13L271.80,199.76L270.52,197.41L269.22,195.09L267.93,192.79L266.63,190.51L265.32,188.25L264.01,186.02L262.69,183.81L261.37,181.62L260.05,179.46L258.73,177.32L257.40,175.21L256.07,173.13L254.74,171.07L253.40,169.04L252.07,167.03L250.73,165.05L249.39,163.10L248.06,161.18L246.72,159.29L245.38,157.42L244.05,155.58L242.72,153.77L241.38,151.99L240.05,150.24L238.73,148.52L237.40,146.83L236.08,145.17L234.76,143.54L233.45,141.94L232.14,140.38L230.83,138.84L229.53,137.34L228.24,135.86L226.95,134.42L225.67,133.02L224.39,131.64L223.12,130.30L221.86,128.99L220.60,127.71L219.36,126.46L218.12,125.25L216.89,124.08L215.67,122.93L214.46,121.82L213.26,120.74L212.07,119.70L210.89,118.69L209.73,117.72L208.57,116.78L207.43,115.87L206.29,115.00L205.18,114.17L204.07,113.36L202.98,112.60L201.90,111.86L200.83,111.17L199.78,110.50L198.74,109.88L197.72,109.28L196.72,108.73L195.73,108.20L194.75,107.71L193.80,107.26L192.85,106.84L191.93,106.46L191.03,106.11L190.14,105.80L189.27,105.52L188.42,105.27L187.58,105.07L186.77,104.89L185.98,104.75L185.20,104.64L184.45,104.57L183.72,104.54L183.00,104.53L182.31,104.56L181.64,104.63L180.99,104.73L180.36,104.86L179.76,105.03L179.17,105.23L178.61,105.46L178.08,105.72L177.56,106.02L177.07,106.35L176.60,106.72L176.16,107.12L175.74,107.54L175.35,108.01L174.98,108.50L174.63,109.02L174.31,109.58L174.02,110.17L173.75,110.78L173.51,111.43L173.29,112.11L173.10,112.82L172.93,113.56L172.79,114.33L172.68,115.13L172.60,115.95L172.54,116.81L172.51,117.70L172.50,118.61L172.53,119.55L172.58,120.52L172.66,121.52L172.77,122.54L172.90,123.59L173.06,124.67L173.26,125.77L173.48,126.90L173.72,128.05L174.00,129.23L174.31,130.44L174.64,131.67L175.00,132.92L175.39,134.20L175.82,135.50L176.27,136.82L176.74,138.17L177.25,139.53L177.79,140.92L178.35,142.34L178.95,143.77L179.57,145.22L180.23,146.70L180.91,148.19L181.62,149.70L182.36,151.23L183.13,152.79L183.93,154.36L184.75,155.94L185.61,157.55L186.50,159.17L187.41,160.81L188.35,162.46L189.33,164.14L190.33,165.82L191.35,167.52L192.41,169.24L193.50,170.97L194.61,172.71L195.75,174.47L196.92,176.24L198.12,178.02L199.35,179.82L200.60,181.62L201.88,183.44L203.19,185.27L204.53,187.10L205.89,188.95L207.28,190.81L208.69,192.67L210.14,194.55L211.60,196.43L213.10,198.32L214.62,200.22L216.17,202.12L217.74,204.03L219.33,205.94L220.96,207.86L222.60,209.79L224.27,211.72L225.97,213.65L227.69,215.59L229.43,217.53L231.20,219.47L232.99,221.42L234.80,223.36L236.63,225.31L238.49,227.26L240.37,229.21L242.27,231.16L244.19,233.11L246.13,235.06L248.10,237.00L250.08,238.95L252.09,240.89L254.11,242.83L256.15,244.77L258.21,246.70L260.30,248.63L262.39,250.56L264.51,252.48L266.65,254.40L268.80,256.31L270.97,258.21L273.15,260.11L275.35,262.00L277.57,263.89L279.80,265.76L282.05,267.63L284.31,269.49L286.58,271.35L288.87,273.19L291.17,275.02L293.48,276.85L295.81,278.66L298.15,280.47L300.50,282.26L302.86,284.04L305.23,285.81L307.61,287.57L310.00,289.32L312.40,291.05L314.81,292.77L317.22,294.48L319.65,296.17L322.08,297.85L324.52,299.52L326.96,301.17L329.41,302.81L331.87,304.43L334.33,306.04L336.79,307.63L339.26,309.20L341.73,310.76L344.21,312.30L346.68,313.83L349.16,315.34L351.64,316.83L354.13,318.30L356.61,319.76L359.09,321.19L361.57,322.61L364.05,324.02L366.53,325.40L369.01,326.76L371.48,328.11L373.95,329.43L376.42,330.74L378.88,332.02L381.34,333.29L383.79,334.54L386.24,335.76L388.68,336.97L391.11,338.15L393.54,339.31L395.96,340.46L398.37,341.58L400.78,342.68L403.17,343.76L405.55,344.82L407.93,345.85L410.29,346.87L412.64,347.86L414.98,348.83L417.31,349.78L419.62,350.71L421.92,351.61L424.21,352.49L426.49,353.35L428.75,354.19L430.99,355.01L433.22,355.80L435.43,356.57L437.62,357.32L439.80,358.04L441.96,358.74L444.10,359.42L446.23,360.08L448.33,360.71L450.42,361.33L452.48,361.91L454.53,362.48L456.55,363.02L458.56,363.54L460.54,364.04L462.50,364.52L464.43,364.97L466.34,365.40L468.23,365.81L470.10,366.19L471.94,366.56L473.76,366.90L475.55,367.22L477.31,367.51L479.05,367.79L480.77,368.04L482.45,368.27L484.11,368.48L485.74,368.67L487.35,368.83L488.92,368.98L490.47,369.10L491.98,369.20L493.47,369.28L494.93,369.34L496.36,369.38L497.76,369.40L499.12,369.40L500.46,369.38L501.76,369.33L503.03,369.27L504.27,369.19L505.48,369.09L506.65,368.97L507.80,368.83L508.90,368.67L509.98,368.49L511.02,368.30L512.03,368.08L513.00,367.85L513.94,367.60L514.84,367.33L515.71,367.05L516.54,366.74L517.34,366.42L518.10,366.09L518.82,365.73L519.51,365.36L520.16,364.98L520.78,364.58L521.36,364.16L521.90,363.73L522.40,363.28L522.87,362.82L523.30,362.34L523.69,361.85L524.05,361.35L524.36,360.83L524.64,360.30L524.88,359.76L525.08,359.20L525.25,358.63L525.37,358.05L525.46,357.46L525.51,356.85L525.52,356.24L525.49,355.61L525.42,354.97L525.31,354.32L525.17,353.66L524.98,353.00L524.76,352.32L524.50,351.63L524.20,350.94L523.86,350.23L523.48,349.52L523.06,348.80L522.60,348.08L522.11,347.34L521.58,346.60L521.00,345.85L520.39,345.10L519.74,344.34L519.05,343.58L518.33,342.80L517.56,342.03L516.76,341.25L515.92,340.47L515.04,339.68L514.12,338.89L513.16,338.09L512.17,337.29L511.14,336.49L510.07,335.69L508.97,334.89L507.83,334.08L506.65,333.27L505.44,332.46L504.18,331.65L502.90,330.85L501.57,330.04L500.21,329.23L498.82,328.42L497.39,327.61L495.93,326.80L494.43,326.00L492.89,325.20L491.32,324.40L489.72,323.60L488.08,322.80L486.41,322.01L484.71,321.22L482.98,320.44L481.21,319.66L479.41,318.88L477.57,318.11L475.71,317.34L473.81,316.58L471.89,315.83L469.93,315.08L467.94,314.33L465.93,313.59L463.88,312.86L461.81,312.14L459.70,311.42L457.57,310.71L455.41,310.01L453.22,309.32L451.01,308.63L448.76,307.95L446.49,307.29L444.20,306.63L441.88,305.98L439.54,305.34L437.17,304.70L434.77,304.08L432.35,303.47L429.91,302.87L427.45,302.28L424.96,301.70L422.46,301.14L419.93,300.58L417.38,300.03L414.81,299.50L412.22,298.98L409.60,298.47L406.98,297.97L404.33,297.49L401.66,297.01L398.98,296.55L396.28,296.11L393.56,295.67L390.83,295.25L388.08,294.84L385.32,294.45L382.54,294.07L379.75,293.70L376.94,293.35L374.12,293.01L371.29,292.69L368.45,292.38L365.60,292.08L362.74,291.80L359.86,291.54L356.98,291.28L354.09,291.05L351.19,290.83L348.28,290.62L345.36,290.43L342.44,290.25L339.51,290.09L336.57,289.94L333.63,289.81L330.69,289.69L327.74,289.59L324.79,289.51L321.84,289.44L318.88,289.39L315.92,289.35L312.96,289.32L310.00,289.32" stroke="#1463c2" stroke-width="2" fill="none"/><path d="M314.40,285.44L309.09,292.13L308.69,283.60" stroke="#1463c2" stroke-width="2" fill="none"/><path d="M95.21,351.21L95.12,359.76L89.57,353.26" stroke="#1463c2" stroke-width="2" fill="none"/><path d="M308.72,295.04L309.08,286.50L314.42,293.17" stroke="#1463c2" stroke-width="2" fill="none"/><text x="45" y="600" font-size="11" fill="#1463c2">polar trace</text><text x="45" y="650" font-size="10">Equal axis scale; x: -1.11 .. 1.11; y: -1.15 .. 0.97</text></g></svg>