<svg xmlns="http://www.w3.org/2000/svg" viewBox="0 0 640 740" role="img">
<rect width="100%" height="100%" fill="white"/>
<g font-family="Arial,sans-serif" font-size="13">
<text x="30" y="28" font-size="17">Area R at low brightness</text><defs><clipPath id="clip0"><rect x="66" y="50" width="520" height="270"/></clipPath></defs>
<path d="M66.00,50v270" stroke="#e2e8f0"/><text x="66.00" y="339" text-anchor="middle">0</text>
<path d="M196.00,50v270" stroke="#e2e8f0"/><text x="196.00" y="339" text-anchor="middle">0.5</text>
<path d="M326.00,50v270" stroke="#e2e8f0"/><text x="326.00" y="339" text-anchor="middle">1</text>
<path d="M456.00,50v270" stroke="#e2e8f0"/><text x="456.00" y="339" text-anchor="middle">1.5</text>
<path d="M586.00,50v270" stroke="#e2e8f0"/><text x="586.00" y="339" text-anchor="middle">2</text>
<path d="M66,320.00h520" stroke="#e2e8f0"/><text x="58" y="324.00" text-anchor="end">0</text>
<path d="M66,252.50h520" stroke="#e2e8f0"/><text x="58" y="256.50" text-anchor="end">10.5</text>
<path d="M66,185.00h520" stroke="#e2e8f0"/><text x="58" y="189.00" text-anchor="end">21</text>
<path d="M66,117.50h520" stroke="#e2e8f0"/><text x="58" y="121.50" text-anchor="end">31.5</text>
<path d="M66,50.00h520" stroke="#e2e8f0"/><text x="58" y="54.00" text-anchor="end">42</text>
<path d="M66,320.00h520 M66.00,50v270" stroke="#475569"/><text x="586" y="360" text-anchor="end">brightness x</text><text x="36" y="42">R (mm^2)</text><g clip-path="url(#clip0)">
<polyline points="66.00,62.86 66.58,119.21 67.16,131.55 67.73,139.41 68.31,145.23 68.89,149.86 69.47,153.70 70.04,156.99 70.62,159.87 71.20,162.41 71.78,164.70 72.36,166.78 72.93,168.68 73.51,170.43 74.09,172.05 74.67,173.55 75.24,174.96 75.82,176.29 76.40,177.53 76.98,178.71 77.56,179.83 78.13,180.89 78.71,181.90 79.29,182.86 79.87,183.78 80.44,184.66 81.02,185.51 81.60,186.32 82.18,187.10 82.76,187.85 83.33,188.58 83.91,189.28 84.49,189.95 85.07,190.61 85.64,191.24 86.22,191.85 86.80,192.45 87.38,193.03 87.96,193.59 88.53,194.13 89.11,194.66 89.69,195.18 90.27,195.68 90.84,196.17 91.42,196.65 92.00,197.12 92.58,197.57 93.16,198.02 93.73,198.45 94.31,198.87 94.89,199.29 95.47,199.69 96.04,200.09 96.62,200.48 97.20,200.86 97.78,201.23 98.36,201.60 98.93,201.96 99.51,202.31 100.09,202.65 100.67,202.99 101.24,203.33 101.82,203.65 102.40,203.97 102.98,204.29 103.56,204.60 104.13,204.90 104.71,205.20 105.29,205.49 105.87,205.78 106.44,206.07 107.02,206.35 107.60,206.62 108.18,206.89 108.76,207.16 109.33,207.42 109.91,207.68 110.49,207.94 111.07,208.19 111.64,208.44 112.22,208.68 112.80,208.92 113.38,209.16 113.96,209.39 114.53,209.63 115.11,209.85 115.69,210.08 116.27,210.30 116.84,210.52 117.42,210.74 118.00,210.95 118.58,211.16 119.16,211.37 119.73,211.57 120.31,211.78 120.89,211.98 121.47,212.18 122.04,212.37 122.62,212.57 123.20,212.76 123.78,212.95 124.36,213.13 124.93,213.32 125.51,213.50 126.09,213.68 126.67,213.86 127.24,214.04 127.82,214.21 128.40,214.39 128.98,214.56 129.56,214.73 130.13,214.89 130.71,215.06 131.29,215.22 131.87,215.39 132.44,215.55 133.02,215.71 133.60,215.86 134.18,216.02 134.76,216.18 135.33,216.33 135.91,216.48 136.49,216.63 137.07,216.78 137.64,216.93 138.22,217.07 138.80,217.22 139.38,217.36 139.96,217.50 140.53,217.64 141.11,217.78 141.69,217.92 142.27,218.06 142.84,218.19 143.42,218.33 144.00,218.46 144.58,218.59 145.16,218.72 145.73,218.85 146.31,218.98 146.89,219.11 147.47,219.24 148.04,219.36 148.62,219.49 149.20,219.61 149.78,219.74 150.36,219.86 150.93,219.98 151.51,220.10 152.09,220.22 152.67,220.33 153.24,220.45 153.82,220.57 154.40,220.68 154.98,220.80 155.56,220.91 156.13,221.02 156.71,221.13 157.29,221.24 157.87,221.35 158.44,221.46 159.02,221.57 159.60,221.68 160.18,221.79 160.76,221.89 161.33,222.00 161.91,222.10 162.49,222.21 163.07,222.31 163.64,222.41 164.22,222.51 164.80,222.61 165.38,222.71 165.96,222.81 166.53,222.91 167.11,223.01 167.69,223.11 168.27,223.20 168.84,223.30 169.42,223.40 170.00,223.49 170.58,223.59 171.16,223.68 171.73,223.77 172.31,223.87 172.89,223.96 173.47,224.05 174.04,224.14 174.62,224.23 175.20,224.32 175.78,224.41 176.36,224.50 176.93,224.58 177.51,224.67 178.09,224.76 178.67,224.84 179.24,224.93 179.82,225.02 180.40,225.10 180.98,225.18 181.56,225.27 182.13,225.35 182.71,225.43 183.29,225.52 183.87,225.60 184.44,225.68 185.02,225.76 185.60,225.84 186.18,225.92 186.76,226.00 187.33,226.08 187.91,226.16 188.49,226.24 189.07,226.31 189.64,226.39 190.22,226.47 190.80,226.54 191.38,226.62 191.96,226.69 192.53,226.77 193.11,226.84 193.69,226.92 194.27,226.99 194.84,227.07 195.42,227.14 196.00,227.21 196.58,227.28 197.16,227.36 197.73,227.43 198.31,227.50 198.89,227.57 199.47,227.64 200.04,227.71 200.62,227.78 201.20,227.85 201.78,227.92 202.36,227.99 202.93,228.05 203.51,228.12 204.09,228.19 204.67,228.26 205.24,228.32 205.82,228.39 206.40,228.46 206.98,228.52 207.56,228.59 208.13,228.65 208.71,228.72 209.29,228.78 209.87,228.85 210.44,228.91 211.02,228.98 211.60,229.04 212.18,229.10 212.76,229.16 213.33,229.23 213.91,229.29 214.49,229.35 215.07,229.41 215.64,229.47 216.22,229.53 216.80,229.60 217.38,229.66 217.96,229.72 218.53,229.78 219.11,229.84 219.69,229.90 220.27,229.95 220.84,230.01 221.42,230.07 222.00,230.13 222.58,230.19 223.16,230.25 223.73,230.30 224.31,230.36 224.89,230.42 225.47,230.47 226.04,230.53 226.62,230.59 227.20,230.64 227.78,230.70 228.36,230.75 228.93,230.81 229.51,230.86 230.09,230.92 230.67,230.97 231.24,231.03 231.82,231.08 232.40,231.14 232.98,231.19 233.56,231.24 234.13,231.30 234.71,231.35 235.29,231.40 235.87,231.46 236.44,231.51 237.02,231.56 237.60,231.61 238.18,231.66 238.76,231.71 239.33,231.77 239.91,231.82 240.49,231.87 241.07,231.92 241.64,231.97 242.22,232.02 242.80,232.07 243.38,232.12 243.96,232.17 244.53,232.22 245.11,232.27 245.69,232.32 246.27,232.37 246.84,232.41 247.42,232.46 248.00,232.51 248.58,232.56 249.16,232.61 249.73,232.65 250.31,232.70 250.89,232.75 251.47,232.80 252.04,232.84 252.62,232.89 253.20,232.94 253.78,232.98 254.36,233.03 254.93,233.08 255.51,233.12 256.09,233.17 256.67,233.21 257.24,233.26 257.82,233.30 258.40,233.35 258.98,233.39 259.56,233.44 260.13,233.48 260.71,233.53 261.29,233.57 261.87,233.62 262.44,233.66 263.02,233.71 263.60,233.75 264.18,233.79 264.76,233.84 265.33,233.88 265.91,233.92 266.49,233.96 267.07,234.01 267.64,234.05 268.22,234.09 268.80,234.13 269.38,234.18 269.96,234.22 270.53,234.26 271.11,234.30 271.69,234.34 272.27,234.39 272.84,234.43 273.42,234.47 274.00,234.51 274.58,234.55 275.16,234.59 275.73,234.63 276.31,234.67 276.89,234.71 277.47,234.75 278.04,234.79 278.62,234.83 279.20,234.87 279.78,234.91 280.36,234.95 280.93,234.99 281.51,235.03 282.09,235.07 282.67,235.11 283.24,235.15 283.82,235.19 284.40,235.22 284.98,235.26 285.56,235.30 286.13,235.34 286.71,235.38 287.29,235.42 287.87,235.45 288.44,235.49 289.02,235.53 289.60,235.57 290.18,235.60 290.76,235.64 291.33,235.68 291.91,235.72 292.49,235.75 293.07,235.79 293.64,235.83 294.22,235.86 294.80,235.90 295.38,235.93 295.96,235.97 296.53,236.01 297.11,236.04 297.69,236.08 298.27,236.12 298.84,236.15 299.42,236.19 300.00,236.22 300.58,236.26 301.16,236.29 301.73,236.33 302.31,236.36 302.89,236.40 303.47,236.43 304.04,236.47 304.62,236.50 305.20,236.54 305.78,236.57 306.36,236.60 306.93,236.64 307.51,236.67 308.09,236.71 308.67,236.74 309.24,236.77 309.82,236.81 310.40,236.84 310.98,236.88 311.56,236.91 312.13,236.94 312.71,236.98 313.29,237.01 313.87,237.04 314.44,237.07 315.02,237.11 315.60,237.14 316.18,237.17 316.76,237.21 317.33,237.24 317.91,237.27 318.49,237.30 319.07,237.33 319.64,237.37 320.22,237.40 320.80,237.43 321.38,237.46 321.96,237.49 322.53,237.53 323.11,237.56 323.69,237.59 324.27,237.62 324.84,237.65 325.42,237.68 326.00,237.71 326.58,237.75 327.16,237.78 327.73,237.81 328.31,237.84 328.89,237.87 329.47,237.90 330.04,237.93 330.62,237.96 331.20,237.99 331.78,238.02 332.36,238.05 332.93,238.08 333.51,238.11 334.09,238.14 334.67,238.17 335.24,238.20 335.82,238.23 336.40,238.26 336.98,238.29 337.56,238.32 338.13,238.35 338.71,238.38 339.29,238.41 339.87,238.44 340.44,238.47 341.02,238.49 341.60,238.52 342.18,238.55 342.76,238.58 343.33,238.61 343.91,238.64 344.49,238.67 345.07,238.70 345.64,238.72 346.22,238.75 346.80,238.78 347.38,238.81 347.96,238.84 348.53,238.87 349.11,238.89 349.69,238.92 350.27,238.95 350.84,238.98 351.42,239.00 352.00,239.03 352.58,239.06 353.16,239.09 353.73,239.11 354.31,239.14 354.89,239.17 355.47,239.20 356.04,239.22 356.62,239.25 357.20,239.28 357.78,239.31 358.36,239.33 358.93,239.36 359.51,239.39 360.09,239.41 360.67,239.44 361.24,239.47 361.82,239.49 362.40,239.52 362.98,239.54 363.56,239.57 364.13,239.60 364.71,239.62 365.29,239.65 365.87,239.68 366.44,239.70 367.02,239.73 367.60,239.75 368.18,239.78 368.76,239.81 369.33,239.83 369.91,239.86 370.49,239.88 371.07,239.91 371.64,239.93 372.22,239.96 372.80,239.98 373.38,240.01 373.96,240.03 374.53,240.06 375.11,240.08 375.69,240.11 376.27,240.13 376.84,240.16 377.42,240.18 378.00,240.21 378.58,240.23 379.16,240.26 379.73,240.28 380.31,240.31 380.89,240.33 381.47,240.36 382.04,240.38 382.62,240.41 383.20,240.43 383.78,240.45 384.36,240.48 384.93,240.50 385.51,240.53 386.09,240.55 386.67,240.57 387.24,240.60 387.82,240.62 388.40,240.65 388.98,240.67 389.56,240.69 390.13,240.72 390.71,240.74 391.29,240.76 391.87,240.79 392.44,240.81 393.02,240.83 393.60,240.86 394.18,240.88 394.76,240.90 395.33,240.93 395.91,240.95 396.49,240.97 397.07,241.00 397.64,241.02 398.22,241.04 398.80,241.07 399.38,241.09 399.96,241.11 400.53,241.13 401.11,241.16 401.69,241.18 402.27,241.20 402.84,241.22 403.42,241.25 404.00,241.27 404.58,241.29 405.16,241.31 405.73,241.34 406.31,241.36 406.89,241.38 407.47,241.40 408.04,241.42 408.62,241.45 409.20,241.47 409.78,241.49 410.36,241.51 410.93,241.53 411.51,241.56 412.09,241.58 412.67,241.60 413.24,241.62 413.82,241.64 414.40,241.67 414.98,241.69 415.56,241.71 416.13,241.73 416.71,241.75 417.29,241.77 417.87,241.79 418.44,241.82 419.02,241.84 419.60,241.86 420.18,241.88 420.76,241.90 421.33,241.92 421.91,241.94 422.49,241.96 423.07,241.98 423.64,242.00 424.22,242.03 424.80,242.05 425.38,242.07 425.96,242.09 426.53,242.11 427.11,242.13 427.69,242.15 428.27,242.17 428.84,242.19 429.42,242.21 430.00,242.23 430.58,242.25 431.16,242.27 431.73,242.29 432.31,242.31 432.89,242.33 433.47,242.35 434.04,242.37 434.62,242.39 435.20,242.41 435.78,242.43 436.36,242.45 436.93,242.47 437.51,242.49 438.09,242.51 438.67,242.53 439.24,242.55 439.82,242.57 440.40,242.59 440.98,242.61 441.56,242.63 442.13,242.65 442.71,242.67 443.29,242.69 443.87,242.71 444.44,242.73 445.02,242.75 445.60,242.77 446.18,242.79 446.76,242.81 447.33,242.83 447.91,242.85 448.49,242.87 449.07,242.88 449.64,242.90 450.22,242.92 450.80,242.94 451.38,242.96 451.96,242.98 452.53,243.00 453.11,243.02 453.69,243.04 454.27,243.06 454.84,243.07 455.42,243.09 456.00,243.11 456.58,243.13 457.16,243.15 457.73,243.17 458.31,243.19 458.89,243.20 459.47,243.22 460.04,243.24 460.62,243.26 461.20,243.28 461.78,243.30 462.36,243.32 462.93,243.33 463.51,243.35 464.09,243.37 464.67,243.39 465.24,243.41 465.82,243.43 466.40,243.44 466.98,243.46 467.56,243.48 468.13,243.50 468.71,243.52 469.29,243.53 469.87,243.55 470.44,243.57 471.02,243.59 471.60,243.60 472.18,243.62 472.76,243.64 473.33,243.66 473.91,243.68 474.49,243.69 475.07,243.71 475.64,243.73 476.22,243.75 476.80,243.76 477.38,243.78 477.96,243.80 478.53,243.82 479.11,243.83 479.69,243.85 480.27,243.87 480.84,243.89 481.42,243.90 482.00,243.92 482.58,243.94 483.16,243.96 483.73,243.97 484.31,243.99 484.89,244.01 485.47,244.02 486.04,244.04 486.62,244.06 487.20,244.07 487.78,244.09 488.36,244.11 488.93,244.13 489.51,244.14 490.09,244.16 490.67,244.18 491.24,244.19 491.82,244.21 492.40,244.23 492.98,244.24 493.56,244.26 494.13,244.28 494.71,244.29 495.29,244.31 495.87,244.33 496.44,244.34 497.02,244.36 497.60,244.38 498.18,244.39 498.76,244.41 499.33,244.43 499.91,244.44 500.49,244.46 501.07,244.47 501.64,244.49 502.22,244.51 502.80,244.52 503.38,244.54 503.96,244.56 504.53,244.57 505.11,244.59 505.69,244.60 506.27,244.62 506.84,244.64 507.42,244.65 508.00,244.67 508.58,244.68 509.16,244.70 509.73,244.72 510.31,244.73 510.89,244.75 511.47,244.76 512.04,244.78 512.62,244.80 513.20,244.81 513.78,244.83 514.36,244.84 514.93,244.86 515.51,244.87 516.09,244.89 516.67,244.91 517.24,244.92 517.82,244.94 518.40,244.95 518.98,244.97 519.56,244.98 520.13,245.00 520.71,245.01 521.29,245.03 521.87,245.04 522.44,245.06 523.02,245.08 523.60,245.09 524.18,245.11 524.76,245.12 525.33,245.14 525.91,245.15 526.49,245.17 527.07,245.18 527.64,245.20 528.22,245.21 528.80,245.23 529.38,245.24 529.96,245.26 530.53,245.27 531.11,245.29 531.69,245.30 532.27,245.32 532.84,245.33 533.42,245.35 534.00,245.36 534.58,245.38 535.16,245.39 535.73,245.41 536.31,245.42 536.89,245.44 537.47,245.45 538.04,245.47 538.62,245.48 539.20,245.49 539.78,245.51 540.36,245.52 540.93,245.54 541.51,245.55 542.09,245.57 542.67,245.58 543.24,245.60 543.82,245.61 544.40,245.63 544.98,245.64 545.56,245.65 546.13,245.67 546.71,245.68 547.29,245.70 547.87,245.71 548.44,245.73 549.02,245.74 549.60,245.76 550.18,245.77 550.76,245.78 551.33,245.80 551.91,245.81 552.49,245.83 553.07,245.84 553.64,245.85 554.22,245.87 554.80,245.88 555.38,245.90 555.96,245.91 556.53,245.92 557.11,245.94 557.69,245.95 558.27,245.97 558.84,245.98 559.42,245.99 560.00,246.01 560.58,246.02 561.16,246.04 561.73,246.05 562.31,246.06 562.89,246.08 563.47,246.09 564.04,246.11 564.62,246.12 565.20,246.13 565.78,246.15 566.36,246.16 566.93,246.17 567.51,246.19 568.09,246.20 568.67,246.21 569.24,246.23 569.82,246.24 570.40,246.26 570.98,246.27 571.56,246.28 572.13,246.30 572.71,246.31 573.29,246.32 573.87,246.34 574.44,246.35 575.02,246.36 575.60,246.38 576.18,246.39 576.76,246.40 577.33,246.42 577.91,246.43 578.49,246.44 579.07,246.46 579.64,246.47 580.22,246.48 580.80,246.50 581.38,246.51 581.96,246.52 582.53,246.53 583.11,246.55 583.69,246.56 584.27,246.57 584.84,246.59 585.42,246.60 586.00,246.61" fill="none" stroke="#1d4ed8" stroke-width="2.2"/>
<circle cx="66.00" cy="62.86" r="4" fill="#1d4ed8" stroke="#1d4ed8" stroke-width="1.7"/>
</g>
<text x="30" y="398" font-size="17">Sensitivity S; divergent at zero</text><defs><clipPath id="clip1"><rect x="66" y="420" width="520" height="270"/></clipPath></defs>
<path d="M66.00,420v270" stroke="#e2e8f0"/><text x="66.00" y="709" text-anchor="middle">0</text>
<path d="M196.00,420v270" stroke="#e2e8f0"/><text x="196.00" y="709" text-anchor="middle">0.5</text>
<path d="M326.00,420v270" stroke="#e2e8f0"/><text x="326.00" y="709" text-anchor="middle">1</text>
<path d="M456.00,420v270" stroke="#e2e8f0"/><text x="456.00" y="709" text-anchor="middle">1.5</text>
<path d="M586.00,420v270" stroke="#e2e8f0"/><text x="586.00" y="709" text-anchor="middle">2</text>
<path d="M66,690.00h520" stroke="#e2e8f0"/><text x="58" y="694.00" text-anchor="end">-120</text>
<path d="M66,622.50h520" stroke="#e2e8f0"/><text x="58" y="626.50" text-anchor="end">-89.5</text>
<path d="M66,555.00h520" stroke="#e2e8f0"/><text x="58" y="559.00" text-anchor="end">-59</text>
<path d="M66,487.50h520" stroke="#e2e8f0"/><text x="58" y="491.50" text-anchor="end">-28.5</text>
<path d="M66,420.00h520" stroke="#e2e8f0"/><text x="58" y="424.00" text-anchor="end">2</text>
<path d="M66,424.43h520 M66.00,420v270" stroke="#475569"/><text x="586" y="730" text-anchor="end">brightness x</text><text x="36" y="412">S</text><g clip-path="url(#clip1)">
<polyline points="66.00,111734.93 66.52,3233.61 67.04,2016.91 67.56,1549.62 68.08,1297.50 68.60,1138.48 69.12,1028.59 69.64,947.92 70.16,886.11 70.68,837.19 71.20,797.50 71.72,764.62 72.24,736.95 72.76,713.33 73.28,692.94 73.80,675.15 74.32,659.49 74.84,645.61 75.36,633.22 75.88,622.09 76.40,612.04 76.92,602.92 77.44,594.60 77.96,586.99 78.48,580.01 79.00,573.57 79.52,567.61 80.04,562.09 80.56,556.96 81.08,552.17 81.60,547.70 82.12,543.52 82.64,539.60 83.16,535.91 83.68,532.43 84.20,529.16 84.72,526.06 85.24,523.13 85.76,520.36 86.28,517.73 86.80,515.22 87.32,512.85 87.84,510.58 88.36,508.42 88.88,506.36 89.40,504.39 89.92,502.51 90.44,500.71 90.96,498.98 91.48,497.32 92.00,495.74 92.52,494.21 93.04,492.74 93.56,491.33 94.08,489.98 94.60,488.67 95.12,487.41 95.64,486.19 96.16,485.02 96.68,483.89 97.20,482.80 97.72,481.74 98.24,480.72 98.76,479.73 99.28,478.77 99.80,477.84 100.32,476.94 100.84,476.07 101.36,475.23 101.88,474.41 102.40,473.61 102.92,472.84 103.44,472.09 103.96,471.36 104.48,470.65 105.00,469.96 105.52,469.28 106.04,468.63 106.56,467.99 107.08,467.38 107.60,466.77 108.12,466.18 108.64,465.61 109.16,465.05 109.68,464.50 110.20,463.97 110.72,463.45 111.24,462.94 111.76,462.45 112.28,461.97 112.80,461.49 113.32,461.03 113.84,460.58 114.36,460.14 114.88,459.71 115.40,459.28 115.92,458.87 116.44,458.47 116.96,458.07 117.48,457.68 118.00,457.30 118.52,456.93 119.04,456.57 119.56,456.21 120.08,455.86 120.60,455.52 121.12,455.18 121.64,454.85 122.16,454.53 122.68,454.21 123.20,453.90 123.72,453.60 124.24,453.30 124.76,453.01 125.28,452.72 125.80,452.43 126.32,452.16 126.84,451.88 127.36,451.62 127.88,451.35 128.40,451.09 128.92,450.84 129.44,450.59 129.96,450.34 130.48,450.10 131.00,449.86 131.52,449.63 132.04,449.40 132.56,449.17 133.08,448.95 133.60,448.73 134.12,448.52 134.64,448.31 135.16,448.10 135.68,447.89 136.20,447.69 136.72,447.49 137.24,447.30 137.76,447.10 138.28,446.91 138.80,446.73 139.32,446.54 139.84,446.36 140.36,446.18 140.88,446.01 141.40,445.83 141.92,445.66 142.44,445.49 142.96,445.33 143.48,445.16 144.00,445.00 144.52,444.84 145.04,444.69 145.56,444.53 146.08,444.38 146.60,444.23 147.12,444.08 147.64,443.93 148.16,443.79 148.68,443.64 149.20,443.50 149.72,443.36 150.24,443.23 150.76,443.09 151.28,442.96 151.80,442.83 152.32,442.70 152.84,442.57 153.36,442.44 153.88,442.31 154.40,442.19 154.92,442.07 155.44,441.95 155.96,441.83 156.48,441.71 157.00,441.59 157.52,441.48 158.04,441.37 158.56,441.25 159.08,441.14 159.60,441.03 160.12,440.92 160.64,440.82 161.16,440.71 161.68,440.61 162.20,440.50 162.72,440.40 163.24,440.30 163.76,440.20 164.28,440.10 164.80,440.00 165.32,439.91 165.84,439.81 166.36,439.72 166.88,439.62 167.40,439.53 167.92,439.44 168.44,439.35 168.96,439.26 169.48,439.17 170.00,439.08 170.52,439.00 171.04,438.91 171.56,438.83 172.08,438.74 172.60,438.66 173.12,438.58 173.64,438.50 174.16,438.42 174.68,438.34 175.20,438.26 175.72,438.18 176.24,438.10 176.76,438.03 177.28,437.95 177.80,437.88 178.32,437.80 178.84,437.73 179.36,437.66 179.88,437.58 180.40,437.51 180.92,437.44 181.44,437.37 181.96,437.30 182.48,437.23 183.00,437.17 183.52,437.10 184.04,437.03 184.56,436.96 185.08,436.90 185.60,436.83 186.12,436.77 186.64,436.71 187.16,436.64 187.68,436.58 188.20,436.52 188.72,436.46 189.24,436.40 189.76,436.34 190.28,436.28 190.80,436.22 191.32,436.16 191.84,436.10 192.36,436.04 192.88,435.99 193.40,435.93 193.92,435.87 194.44,435.82 194.96,435.76 195.48,435.71 196.00,435.65 196.52,435.60 197.04,435.55 197.56,435.49 198.08,435.44 198.60,435.39 199.12,435.34 199.64,435.29 200.16,435.24 200.68,435.19 201.20,435.14 201.72,435.09 202.24,435.04 202.76,434.99 203.28,434.94 203.80,434.89 204.32,434.85 204.84,434.80 205.36,434.75 205.88,434.71 206.40,434.66 206.92,434.61 207.44,434.57 207.96,434.52 208.48,434.48 209.00,434.44 209.52,434.39 210.04,434.35 210.56,434.31 211.08,434.26 211.60,434.22 212.12,434.18 212.64,434.14 213.16,434.10 213.68,434.05 214.20,434.01 214.72,433.97 215.24,433.93 215.76,433.89 216.28,433.85 216.80,433.81 217.32,433.77 217.84,433.74 218.36,433.70 218.88,433.66 219.40,433.62 219.92,433.58 220.44,433.55 220.96,433.51 221.48,433.47 222.00,433.44 222.52,433.40 223.04,433.36 223.56,433.33 224.08,433.29 224.60,433.26 225.12,433.22 225.64,433.19 226.16,433.15 226.68,433.12 227.20,433.08 227.72,433.05 228.24,433.02 228.76,432.98 229.28,432.95 229.80,432.92 230.32,432.89 230.84,432.85 231.36,432.82 231.88,432.79 232.40,432.76 232.92,432.73 233.44,432.69 233.96,432.66 234.48,432.63 235.00,432.60 235.52,432.57 236.04,432.54 236.56,432.51 237.08,432.48 237.60,432.45 238.12,432.42 238.64,432.39 239.16,432.36 239.68,432.33 240.20,432.31 240.72,432.28 241.24,432.25 241.76,432.22 242.28,432.19 242.80,432.16 243.32,432.14 243.84,432.11 244.36,432.08 244.88,432.05 245.40,432.03 245.92,432.00 246.44,431.97 246.96,431.95 247.48,431.92 248.00,431.90 248.52,431.87 249.04,431.84 249.56,431.82 250.08,431.79 250.60,431.77 251.12,431.74 251.64,431.72 252.16,431.69 252.68,431.67 253.20,431.64 253.72,431.62 254.24,431.59 254.76,431.57 255.28,431.55 255.80,431.52 256.32,431.50 256.84,431.47 257.36,431.45 257.88,431.43 258.40,431.40 258.92,431.38 259.44,431.36 259.96,431.34 260.48,431.31 261.00,431.29 261.52,431.27 262.04,431.25 262.56,431.22 263.08,431.20 263.60,431.18 264.12,431.16 264.64,431.14 265.16,431.12 265.68,431.09 266.20,431.07 266.72,431.05 267.24,431.03 267.76,431.01 268.28,430.99 268.80,430.97 269.32,430.95 269.84,430.93 270.36,430.91 270.88,430.89 271.40,430.87 271.92,430.85 272.44,430.83 272.96,430.81 273.48,430.79 274.00,430.77 274.52,430.75 275.04,430.73 275.56,430.71 276.08,430.69 276.60,430.67 277.12,430.65 277.64,430.64 278.16,430.62 278.68,430.60 279.20,430.58 279.72,430.56 280.24,430.54 280.76,430.52 281.28,430.51 281.80,430.49 282.32,430.47 282.84,430.45 283.36,430.43 283.88,430.42 284.40,430.40 284.92,430.38 285.44,430.36 285.96,430.35 286.48,430.33 287.00,430.31 287.52,430.30 288.04,430.28 288.56,430.26 289.08,430.25 289.60,430.23 290.12,430.21 290.64,430.20 291.16,430.18 291.68,430.16 292.20,430.15 292.72,430.13 293.24,430.11 293.76,430.10 294.28,430.08 294.80,430.07 295.32,430.05 295.84,430.04 296.36,430.02 296.88,430.00 297.40,429.99 297.92,429.97 298.44,429.96 298.96,429.94 299.48,429.93 300.00,429.91 300.52,429.90 301.04,429.88 301.56,429.87 302.08,429.85 302.60,429.84 303.12,429.82 303.64,429.81 304.16,429.79 304.68,429.78 305.20,429.77 305.72,429.75 306.24,429.74 306.76,429.72 307.28,429.71 307.80,429.69 308.32,429.68 308.84,429.67 309.36,429.65 309.88,429.64 310.40,429.63 310.92,429.61 311.44,429.60 311.96,429.58 312.48,429.57 313.00,429.56 313.52,429.54 314.04,429.53 314.56,429.52 315.08,429.50 315.60,429.49 316.12,429.48 316.64,429.47 317.16,429.45 317.68,429.44 318.20,429.43 318.72,429.41 319.24,429.40 319.76,429.39 320.28,429.38 320.80,429.36 321.32,429.35 321.84,429.34 322.36,429.33 322.88,429.31 323.40,429.30 323.92,429.29 324.44,429.28 324.96,429.27 325.48,429.25 326.00,429.24 326.52,429.23 327.04,429.22 327.56,429.21 328.08,429.19 328.60,429.18 329.12,429.17 329.64,429.16 330.16,429.15 330.68,429.14 331.20,429.13 331.72,429.11 332.24,429.10 332.76,429.09 333.28,429.08 333.80,429.07 334.32,429.06 334.84,429.05 335.36,429.04 335.88,429.02 336.40,429.01 336.92,429.00 337.44,428.99 337.96,428.98 338.48,428.97 339.00,428.96 339.52,428.95 340.04,428.94 340.56,428.93 341.08,428.92 341.60,428.91 342.12,428.90 342.64,428.88 343.16,428.87 343.68,428.86 344.20,428.85 344.72,428.84 345.24,428.83 345.76,428.82 346.28,428.81 346.80,428.80 347.32,428.79 347.84,428.78 348.36,428.77 348.88,428.76 349.40,428.75 349.92,428.74 350.44,428.73 350.96,428.72 351.48,428.71 352.00,428.70 352.52,428.69 353.04,428.68 353.56,428.68 354.08,428.67 354.60,428.66 355.12,428.65 355.64,428.64 356.16,428.63 356.68,428.62 357.20,428.61 357.72,428.60 358.24,428.59 358.76,428.58 359.28,428.57 359.80,428.56 360.32,428.55 360.84,428.54 361.36,428.54 361.88,428.53 362.40,428.52 362.92,428.51 363.44,428.50 363.96,428.49 364.48,428.48 365.00,428.47 365.52,428.46 366.04,428.46 366.56,428.45 367.08,428.44 367.60,428.43 368.12,428.42 368.64,428.41 369.16,428.40 369.68,428.40 370.20,428.39 370.72,428.38 371.24,428.37 371.76,428.36 372.28,428.35 372.80,428.35 373.32,428.34 373.84,428.33 374.36,428.32 374.88,428.31 375.40,428.30 375.92,428.30 376.44,428.29 376.96,428.28 377.48,428.27 378.00,428.26 378.52,428.26 379.04,428.25 379.56,428.24 380.08,428.23 380.60,428.22 381.12,428.22 381.64,428.21 382.16,428.20 382.68,428.19 383.20,428.19 383.72,428.18 384.24,428.17 384.76,428.16 385.28,428.16 385.80,428.15 386.32,428.14 386.84,428.13 387.36,428.13 387.88,428.12 388.40,428.11 388.92,428.10 389.44,428.10 389.96,428.09 390.48,428.08 391.00,428.07 391.52,428.07 392.04,428.06 392.56,428.05 393.08,428.04 393.60,428.04 394.12,428.03 394.64,428.02 395.16,428.02 395.68,428.01 396.20,428.00 396.72,427.99 397.24,427.99 397.76,427.98 398.28,427.97 398.80,427.97 399.32,427.96 399.84,427.95 400.36,427.95 400.88,427.94 401.40,427.93 401.92,427.93 402.44,427.92 402.96,427.91 403.48,427.91 404.00,427.90 404.52,427.89 405.04,427.89 405.56,427.88 406.08,427.87 406.60,427.87 407.12,427.86 407.64,427.85 408.16,427.85 408.68,427.84 409.20,427.83 409.72,427.83 410.24,427.82 410.76,427.81 411.28,427.81 411.80,427.80 412.32,427.79 412.84,427.79 413.36,427.78 413.88,427.78 414.40,427.77 414.92,427.76 415.44,427.76 415.96,427.75 416.48,427.74 417.00,427.74 417.52,427.73 418.04,427.73 418.56,427.72 419.08,427.71 419.60,427.71 420.12,427.70 420.64,427.70 421.16,427.69 421.68,427.68 422.20,427.68 422.72,427.67 423.24,427.67 423.76,427.66 424.28,427.65 424.80,427.65 425.32,427.64 425.84,427.64 426.36,427.63 426.88,427.62 427.40,427.62 427.92,427.61 428.44,427.61 428.96,427.60 429.48,427.60 430.00,427.59 430.52,427.58 431.04,427.58 431.56,427.57 432.08,427.57 432.60,427.56 433.12,427.56 433.64,427.55 434.16,427.55 434.68,427.54 435.20,427.53 435.72,427.53 436.24,427.52 436.76,427.52 437.28,427.51 437.80,427.51 438.32,427.50 438.84,427.50 439.36,427.49 439.88,427.49 440.40,427.48 440.92,427.47 441.44,427.47 441.96,427.46 442.48,427.46 443.00,427.45 443.52,427.45 444.04,427.44 444.56,427.44 445.08,427.43 445.60,427.43 446.12,427.42 446.64,427.42 447.16,427.41 447.68,427.41 448.20,427.40 448.72,427.40 449.24,427.39 449.76,427.39 450.28,427.38 450.80,427.38 451.32,427.37 451.84,427.37 452.36,427.36 452.88,427.36 453.40,427.35 453.92,427.35 454.44,427.34 454.96,427.34 455.48,427.33 456.00,427.33 456.52,427.32 457.04,427.32 457.56,427.31 458.08,427.31 458.60,427.30 459.12,427.30 459.64,427.29 460.16,427.29 460.68,427.28 461.20,427.28 461.72,427.27 462.24,427.27 462.76,427.27 463.28,427.26 463.80,427.26 464.32,427.25 464.84,427.25 465.36,427.24 465.88,427.24 466.40,427.23 466.92,427.23 467.44,427.22 467.96,427.22 468.48,427.21 469.00,427.21 469.52,427.21 470.04,427.20 470.56,427.20 471.08,427.19 471.60,427.19 472.12,427.18 472.64,427.18 473.16,427.17 473.68,427.17 474.20,427.17 474.72,427.16 475.24,427.16 475.76,427.15 476.28,427.15 476.80,427.14 477.32,427.14 477.84,427.13 478.36,427.13 478.88,427.13 479.40,427.12 479.92,427.12 480.44,427.11 480.96,427.11 481.48,427.10 482.00,427.10 482.52,427.10 483.04,427.09 483.56,427.09 484.08,427.08 484.60,427.08 485.12,427.08 485.64,427.07 486.16,427.07 486.68,427.06 487.20,427.06 487.72,427.05 488.24,427.05 488.76,427.05 489.28,427.04 489.80,427.04 490.32,427.03 490.84,427.03 491.36,427.03 491.88,427.02 492.40,427.02 492.92,427.01 493.44,427.01 493.96,427.01 494.48,427.00 495.00,427.00 495.52,426.99 496.04,426.99 496.56,426.99 497.08,426.98 497.60,426.98 498.12,426.97 498.64,426.97 499.16,426.97 499.68,426.96 500.20,426.96 500.72,426.96 501.24,426.95 501.76,426.95 502.28,426.94 502.80,426.94 503.32,426.94 503.84,426.93 504.36,426.93 504.88,426.93 505.40,426.92 505.92,426.92 506.44,426.91 506.96,426.91 507.48,426.91 508.00,426.90 508.52,426.90 509.04,426.90 509.56,426.89 510.08,426.89 510.60,426.88 511.12,426.88 511.64,426.88 512.16,426.87 512.68,426.87 513.20,426.87 513.72,426.86 514.24,426.86 514.76,426.86 515.28,426.85 515.80,426.85 516.32,426.85 516.84,426.84 517.36,426.84 517.88,426.83 518.40,426.83 518.92,426.83 519.44,426.82 519.96,426.82 520.48,426.82 521.00,426.81 521.52,426.81 522.04,426.81 522.56,426.80 523.08,426.80 523.60,426.80 524.12,426.79 524.64,426.79 525.16,426.79 525.68,426.78 526.20,426.78 526.72,426.78 527.24,426.77 527.76,426.77 528.28,426.77 528.80,426.76 529.32,426.76 529.84,426.76 530.36,426.75 530.88,426.75 531.40,426.75 531.92,426.74 532.44,426.74 532.96,426.74 533.48,426.73 534.00,426.73 534.52,426.73 535.04,426.72 535.56,426.72 536.08,426.72 536.60,426.71 537.12,426.71 537.64,426.71 538.16,426.70 538.68,426.70 539.20,426.70 539.72,426.69 540.24,426.69 540.76,426.69 541.28,426.69 541.80,426.68 542.32,426.68 542.84,426.68 543.36,426.67 543.88,426.67 544.40,426.67 544.92,426.66 545.44,426.66 545.96,426.66 546.48,426.65 547.00,426.65 547.52,426.65 548.04,426.65 548.56,426.64 549.08,426.64 549.60,426.64 550.12,426.63 550.64,426.63 551.16,426.63 551.68,426.62 552.20,426.62 552.72,426.62 553.24,426.62 553.76,426.61 554.28,426.61 554.80,426.61 555.32,426.60 555.84,426.60 556.36,426.60 556.88,426.59 557.40,426.59 557.92,426.59 558.44,426.59 558.96,426.58 559.48,426.58 560.00,426.58 560.52,426.57 561.04,426.57 561.56,426.57 562.08,426.57 562.60,426.56 563.12,426.56 563.64,426.56 564.16,426.55 564.68,426.55 565.20,426.55 565.72,426.55 566.24,426.54 566.76,426.54 567.28,426.54 567.80,426.53 568.32,426.53 568.84,426.53 569.36,426.53 569.88,426.52 570.40,426.52 570.92,426.52 571.44,426.52 571.96,426.51 572.48,426.51 573.00,426.51 573.52,426.50 574.04,426.50 574.56,426.50 575.08,426.50 575.60,426.49 576.12,426.49 576.64,426.49 577.16,426.49 577.68,426.48 578.20,426.48 578.72,426.48 579.24,426.48 579.76,426.47 580.28,426.47 580.80,426.47 581.32,426.46 581.84,426.46 582.36,426.46 582.88,426.46 583.40,426.45 583.92,426.45 584.44,426.45 584.96,426.45 585.48,426.44 586.00,426.44" fill="none" stroke="#1d4ed8" stroke-width="2.2"/>
</g>
</g></svg>