<svg xmlns="http://www.w3.org/2000/svg" viewBox="0 0 640 370" role="img">
<rect width="100%" height="100%" fill="white"/>
<g font-family="Arial,sans-serif" font-size="13">
<text x="30" y="28" font-size="17">1/x, x &gt;= 1</text><defs><clipPath id="clip0"><rect x="66" y="50" width="520" height="270"/></clipPath></defs>
<path d="M66.00,50v270" stroke="#e2e8f0"/><text x="66.00" y="339" text-anchor="middle">0.5</text>
<path d="M196.00,50v270" stroke="#e2e8f0"/><text x="196.00" y="339" text-anchor="middle">1.875</text>
<path d="M326.00,50v270" stroke="#e2e8f0"/><text x="326.00" y="339" text-anchor="middle">3.25</text>
<path d="M456.00,50v270" stroke="#e2e8f0"/><text x="456.00" y="339" text-anchor="middle">4.625</text>
<path d="M586.00,50v270" stroke="#e2e8f0"/><text x="586.00" y="339" text-anchor="middle">6</text>
<path d="M66,320.00h520" stroke="#e2e8f0"/><text x="58" y="324.00" text-anchor="end">0</text>
<path d="M66,252.50h520" stroke="#e2e8f0"/><text x="58" y="256.50" text-anchor="end">0.325</text>
<path d="M66,185.00h520" stroke="#e2e8f0"/><text x="58" y="189.00" text-anchor="end">0.65</text>
<path d="M66,117.50h520" stroke="#e2e8f0"/><text x="58" y="121.50" text-anchor="end">0.975</text>
<path d="M66,50.00h520" stroke="#e2e8f0"/><text x="58" y="54.00" text-anchor="end">1.3</text>
<path d="M66,320.00h520 M66.00,50v270" stroke="#475569"/><text x="586" y="360" text-anchor="end">x</text><text x="36" y="42">y</text><g clip-path="url(#clip0)">
<polyline points="113.27,112.31 116.23,118.60 119.18,124.52 122.14,130.11 125.09,135.38 128.05,140.37 131.00,145.10 133.95,149.59 136.91,153.85 139.86,157.90 142.82,161.76 145.77,165.44 148.73,168.95 151.68,172.31 154.64,175.52 157.59,178.59 160.55,181.54 163.50,184.36 166.45,187.08 169.41,189.68 172.36,192.19 175.32,194.60 178.27,196.92 181.23,199.16 184.18,201.32 187.14,203.40 190.09,205.41 193.05,207.35 196.00,209.23 198.95,211.05 201.91,212.80 204.86,214.51 207.82,216.15 210.77,217.75 213.73,219.30 216.68,220.80 219.64,222.26 222.59,223.68 225.55,225.05 228.50,226.39 231.45,227.69 234.41,228.96 237.36,230.19 240.32,231.38 243.27,232.55 246.23,233.69 249.18,234.79 252.14,235.87 255.09,236.92 258.05,237.95 261.00,238.95 263.95,239.93 266.91,240.88 269.86,241.81 272.82,242.72 275.77,243.61 278.73,244.48 281.68,245.32 284.64,246.15 287.59,246.97 290.55,247.76 293.50,248.54 296.45,249.30 299.41,250.04 302.36,250.77 305.32,251.48 308.27,252.18 311.23,252.87 314.18,253.54 317.14,254.20 320.09,254.84 323.05,255.47 326.00,256.09 328.95,256.70 331.91,257.30 334.86,257.89 337.82,258.46 340.77,259.03 343.73,259.58 346.68,260.12 349.64,260.66 352.59,261.18 355.55,261.70 358.50,262.21 361.45,262.71 364.41,263.20 367.36,263.68 370.32,264.15 373.27,264.62 376.23,265.07 379.18,265.52 382.14,265.97 385.09,266.40 388.05,266.83 391.00,267.25 393.95,267.67 396.91,268.08 399.86,268.48 402.82,268.88 405.77,269.27 408.73,269.65 411.68,270.03 414.64,270.40 417.59,270.77 420.55,271.13 423.50,271.49 426.45,271.84 429.41,272.19 432.36,272.53 435.32,272.86 438.27,273.20 441.23,273.52 444.18,273.85 447.14,274.16 450.09,274.48 453.05,274.79 456.00,275.09 458.95,275.39 461.91,275.69 464.86,275.99 467.82,276.28 470.77,276.56 473.73,276.84 476.68,277.12 479.64,277.40 482.59,277.67 485.55,277.94 488.50,278.20 491.45,278.46 494.41,278.72 497.36,278.97 500.32,279.23 503.27,279.47 506.23,279.72 509.18,279.96 512.14,280.20 515.09,280.44 518.05,280.67 521.00,280.90 523.95,281.13 526.91,281.36 529.86,281.58 532.82,281.80 535.77,282.02 538.73,282.24 541.68,282.45 544.64,282.66 547.59,282.87 550.55,283.08 553.50,283.28 556.45,283.48 559.41,283.68 562.36,283.88 565.32,284.07 568.27,284.27 571.23,284.46 574.18,284.65 577.14,284.84 580.09,285.02 583.05,285.20 586.00,285.38" fill="none" stroke="#1d4ed8" stroke-width="2.2"/>
<circle cx="113.27" cy="112.31" r="4" fill="#1d4ed8" stroke="#1d4ed8" stroke-width="1.7"/>
</g>
</g></svg>