<svg xmlns="http://www.w3.org/2000/svg" viewBox="0 0 680 430"><rect width="680" height="430" fill="white"/><defs><clipPath id="v0"><rect x="65" y="55" width="555" height="290"/></clipPath></defs><text x="65" y="28" font-size="15">Radical and fractional-power curve</text><path d="M65 200.0H620M342.5 55V345" stroke="#a3abb6" fill="none"/><polyline points="65.000,328.214 65.617,327.925 66.233,327.635 66.850,327.346 67.467,327.056 68.083,326.767 68.700,326.477 69.317,326.187 69.933,325.898 70.550,325.608 71.167,325.319 71.783,325.029 72.400,324.739 73.017,324.450 73.633,324.160 74.250,323.870 74.867,323.580 75.483,323.290 76.100,323.001 76.717,322.711 77.333,322.421 77.950,322.131 78.567,321.841 79.183,321.551 79.800,321.261 80.417,320.971 81.033,320.681 81.650,320.391 82.267,320.101 82.883,319.811 83.500,319.521 84.117,319.231 84.733,318.940 85.350,318.650 85.967,318.360 86.583,318.070 87.200,317.779 87.817,317.489 88.433,317.199 89.050,316.908 89.667,316.618 90.283,316.327 90.900,316.037 91.517,315.746 92.133,315.456 92.750,315.165 93.367,314.875 93.983,314.584 94.600,314.293 95.217,314.003 95.833,313.712 96.450,313.421 97.067,313.130 97.683,312.840 98.300,312.549 98.917,312.258 99.533,311.967 100.150,311.676 100.767,311.385 101.383,311.094 102.000,310.803 102.617,310.512 103.233,310.220 103.850,309.929 104.467,309.638 105.083,309.347 105.700,309.055 106.317,308.764 106.933,308.473 107.550,308.181 108.167,307.890 108.783,307.598 109.400,307.307 110.017,307.015 110.633,306.724 111.250,306.432 111.867,306.140 112.483,305.848 113.100,305.557 113.717,305.265 114.333,304.973 114.950,304.681 115.567,304.389 116.183,304.097 116.800,303.805 117.417,303.513 118.033,303.221 118.650,302.928 119.267,302.636 119.883,302.344 120.500,302.051 121.117,301.759 121.733,301.466 122.350,301.174 122.967,300.881 123.583,300.589 124.200,300.296 124.817,300.003 125.433,299.710 126.050,299.418 126.667,299.125 127.283,298.832 127.900,298.539 128.517,298.246 129.133,297.952 129.750,297.659 130.367,297.366 130.983,297.073 131.600,296.779 132.217,296.486 132.833,296.192 133.450,295.899 134.067,295.605 134.683,295.311 135.300,295.018 135.917,294.724 136.533,294.430 137.150,294.136 137.767,293.842 138.383,293.548 139.000,293.253 139.617,292.959 140.233,292.665 140.850,292.370 141.467,292.076 142.083,291.781 142.700,291.487 143.317,291.192 143.933,290.897 144.550,290.602 145.167,290.307 145.783,290.012 146.400,289.717 147.017,289.422 147.633,289.126 148.250,288.831 148.867,288.535 149.483,288.240 150.100,287.944 150.717,287.648 151.333,287.352 151.950,287.056 152.567,286.760 153.183,286.464 153.800,286.168 154.417,285.872 155.033,285.575 155.650,285.279 156.267,284.982 156.883,284.685 157.500,284.388 158.117,284.091 158.733,283.794 159.350,283.497 159.967,283.199 160.583,282.902 161.200,282.604 161.817,282.307 162.433,282.009 163.050,281.711 163.667,281.413 164.283,281.115 164.900,280.816 165.517,280.518 166.133,280.219 166.750,279.921 167.367,279.622 167.983,279.323 168.600,279.023 169.217,278.724 169.833,278.425 170.450,278.125 171.067,277.825 171.683,277.526 172.300,277.225 172.917,276.925 173.533,276.625 174.150,276.324 174.767,276.024 175.383,275.723 176.000,275.422 176.617,275.121 177.233,274.819 177.850,274.518 178.467,274.216 179.083,273.914 179.700,273.612 180.317,273.309 180.933,273.007 181.550,272.704 182.167,272.401 182.783,272.098 183.400,271.795 184.017,271.491 184.633,271.188 185.250,270.884 185.867,270.579 186.483,270.275 187.100,269.970 187.717,269.665 188.333,269.360 188.950,269.055 189.567,268.749 190.183,268.443 190.800,268.137 191.417,267.831 192.033,267.524 192.650,267.217 193.267,266.910 193.883,266.603 194.500,266.295 195.117,265.987 195.733,265.678 196.350,265.370 196.967,265.061 197.583,264.751 198.200,264.442 198.817,264.132 199.433,263.821 200.050,263.511 200.667,263.200 201.283,262.888 201.900,262.576 202.517,262.264 203.133,261.952 203.750,261.639 204.367,261.326 204.983,261.012 205.600,260.698 206.217,260.383 206.833,260.068 207.450,259.753 208.067,259.437 208.683,259.121 209.300,258.804 209.917,258.487 210.533,258.169 211.150,257.851 211.767,257.532 212.383,257.213 213.000,256.893 213.617,256.572 214.233,256.251 214.850,255.930 215.467,255.608 216.083,255.285 216.700,254.961 217.317,254.637 217.933,254.313 218.550,253.987 219.167,253.661 219.783,253.334 220.400,253.007 221.017,252.679 221.633,252.350 222.250,252.020 222.867,251.689 223.483,251.358 224.100,251.026 224.717,250.693 225.333,250.359 225.950,250.024 226.567,249.688 227.183,249.351 227.800,249.013 228.417,248.674 229.033,248.334 229.650,247.993 230.267,247.651 230.883,247.308 231.500,246.963 232.117,246.617 232.733,246.270 233.350,245.922 233.967,245.572 234.583,245.221 235.200,244.868 235.817,244.514 236.433,244.158 237.050,243.801 237.667,243.442 238.283,243.081 238.900,242.719 239.517,242.355 240.133,241.988 240.750,241.620 241.367,241.250 241.983,240.877 242.600,240.502 243.217,240.125 243.833,239.746 244.450,239.364 245.067,238.979 245.683,238.592 246.300,238.201 246.917,237.808 247.533,237.411 248.150,237.011 248.767,236.608 249.383,236.201 250.000,235.791 250.617,235.376 251.233,234.957 251.850,234.533 252.467,234.105 253.083,233.672 253.700,233.234 254.317,232.790 254.933,232.340 255.550,231.883 256.167,231.421 256.783,230.950 257.400,230.472 258.017,229.986 258.633,229.491 259.250,228.987 259.867,228.472 260.483,227.945 261.100,227.407 261.717,226.855 262.333,226.288 262.950,225.705 263.567,225.104 264.183,224.483 264.800,223.839 265.417,223.169 266.033,222.469 266.650,221.736 267.267,220.962 267.883,220.141 268.500,219.262 269.117,218.312 269.733,217.270 270.350,216.105 270.967,214.768 271.583,213.162 272.200,211.069 272.817,207.652 273.433,192.371 274.050,189.029 274.667,187.031 275.283,185.535 275.900,184.319 276.517,183.284 277.133,182.380 277.750,181.575 278.367,180.848 278.983,180.185 279.600,179.575 280.217,179.011 280.833,178.485 281.450,177.994 282.067,177.533 282.683,177.099 283.300,176.689 283.917,176.301 284.533,175.933 285.150,175.584 285.767,175.251 286.383,174.934 287.000,174.631 287.617,174.342 288.233,174.066 288.850,173.801 289.467,173.547 290.083,173.304 290.700,173.071 291.317,172.847 291.933,172.631 292.550,172.425 293.167,172.226 293.783,172.035 294.400,171.851 295.017,171.674 295.633,171.503 296.250,171.339 296.867,171.181 297.483,171.029 298.100,170.883 298.717,170.742 299.333,170.606 299.950,170.475 300.567,170.350 301.183,170.228 301.800,170.111 302.417,169.999 303.033,169.891 303.650,169.787 304.267,169.686 304.883,169.590 305.500,169.497 306.117,169.408 306.733,169.322 307.350,169.240 307.967,169.161 308.583,169.085 309.200,169.012 309.817,168.942 310.433,168.875 311.050,168.811 311.667,168.750 312.283,168.691 312.900,168.635 313.517,168.581 314.133,168.529 314.750,168.480 315.367,168.434 315.983,168.389 316.600,168.347 317.217,168.306 317.833,168.268 318.450,168.232 319.067,168.197 319.683,168.165 320.300,168.134 320.917,168.105 321.533,168.077 322.150,168.051 322.767,168.027 323.383,168.004 324.000,167.983 324.617,167.963 325.233,167.944 325.850,167.927 326.467,167.911 327.083,167.896 327.700,167.882 328.317,167.870 328.933,167.858 329.550,167.848 330.167,167.838 330.783,167.830 331.400,167.822 332.017,167.815 332.633,167.809 333.250,167.803 333.867,167.798 334.483,167.794 335.100,167.791 335.717,167.788 336.333,167.785 336.950,167.783 337.567,167.782 338.183,167.780 338.800,167.779 339.417,167.779 340.033,167.778 340.650,167.778 341.267,167.778 341.883,167.778 342.500,167.778 343.117,167.778 343.733,167.778 344.350,167.778 344.967,167.777 345.583,167.777 346.200,167.776 346.817,167.775 347.433,167.774 348.050,167.772 348.667,167.770 349.283,167.768 349.900,167.765 350.517,167.761 351.133,167.757 351.750,167.752 352.367,167.747 352.983,167.741 353.600,167.734 354.217,167.726 354.833,167.718 355.450,167.708 356.067,167.698 356.683,167.686 357.300,167.674 357.917,167.660 358.533,167.646 359.150,167.630 359.767,167.613 360.383,167.595 361.000,167.575 361.617,167.555 362.233,167.532 362.850,167.509 363.467,167.484 364.083,167.458 364.700,167.430 365.317,167.400 365.933,167.369 366.550,167.336 367.167,167.302 367.783,167.266 368.400,167.228 369.017,167.189 369.633,167.148 370.250,167.105 370.867,167.060 371.483,167.013 372.100,166.964 372.717,166.914 373.333,166.861 373.950,166.807 374.567,166.750 375.183,166.692 375.800,166.631 376.417,166.569 377.033,166.504 377.650,166.437 378.267,166.368 378.883,166.298 379.500,166.224 380.117,166.149 380.733,166.072 381.350,165.992 381.967,165.911 382.583,165.827 383.200,165.741 383.817,165.652 384.433,165.562 385.050,165.469 385.667,165.374 386.283,165.277 386.900,165.178 387.517,165.076 388.133,164.972 388.750,164.866 389.367,164.758 389.983,164.648 390.600,164.535 391.217,164.420 391.833,164.304 392.450,164.184 393.067,164.063 393.683,163.940 394.300,163.814 394.917,163.687 395.533,163.557 396.150,163.425 396.767,163.291 397.383,163.155 398.000,163.017 398.617,162.876 399.233,162.734 399.850,162.590 400.467,162.444 401.083,162.296 401.700,162.146 402.317,161.993 402.933,161.839 403.550,161.684 404.167,161.526 404.783,161.366 405.400,161.205 406.017,161.041 406.633,160.876 407.250,160.709 407.867,160.541 408.483,160.370 409.100,160.198 409.717,160.024 410.333,159.849 410.950,159.671 411.567,159.493 412.183,159.312 412.800,159.130 413.417,158.947 414.033,158.761 414.650,158.575 415.267,158.386 415.883,158.197 416.500,158.006 417.117,157.813 417.733,157.619 418.350,157.424 418.967,157.227 419.583,157.029 420.200,156.829 420.817,156.628 421.433,156.426 422.050,156.223 422.667,156.018 423.283,155.812 423.900,155.605 424.517,155.397 425.133,155.187 425.750,154.977 426.367,154.765 426.983,154.552 427.600,154.338 428.217,154.123 428.833,153.907 429.450,153.689 430.067,153.471 430.683,153.252 431.300,153.031 431.917,152.810 432.533,152.588 433.150,152.364 433.767,152.140 434.383,151.915 435.000,151.689 435.617,151.462 436.233,151.234 436.850,151.005 437.467,150.776 438.083,150.545 438.700,150.314 439.317,150.082 439.933,149.849 440.550,149.616 441.167,149.381 441.783,149.146 442.400,148.910 443.017,148.674 443.633,148.436 444.250,148.198 444.867,147.960 445.483,147.720 446.100,147.480 446.717,147.239 447.333,146.998 447.950,146.756 448.567,146.513 449.183,146.270 449.800,146.026 450.417,145.781 451.033,145.536 451.650,145.291 452.267,145.044 452.883,144.798 453.500,144.550 454.117,144.303 454.733,144.054 455.350,143.805 455.967,143.556 456.583,143.306 457.200,143.055 457.817,142.804 458.433,142.553 459.050,142.301 459.667,142.049 460.283,141.796 460.900,141.543 461.517,141.289 462.133,141.035 462.750,140.780 463.367,140.525 463.983,140.270 464.600,140.014 465.217,139.758 465.833,139.501 466.450,139.244 467.067,138.987 467.683,138.729 468.300,138.471 468.917,138.213 469.533,137.954 470.150,137.695 470.767,137.435 471.383,137.175 472.000,136.915 472.617,136.655 473.233,136.394 473.850,136.133 474.467,135.871 475.083,135.609 475.700,135.347 476.317,135.085 476.933,134.822 477.550,134.559 478.167,134.296 478.783,134.032 479.400,133.768 480.017,133.504 480.633,133.240 481.250,132.975 481.867,132.710 482.483,132.445 483.100,132.180 483.717,131.914 484.333,131.648 484.950,131.382 485.567,131.115 486.183,130.849 486.800,130.582 487.417,130.315 488.033,130.047 488.650,129.780 489.267,129.512 489.883,129.244 490.500,128.976 491.117,128.708 491.733,128.439 492.350,128.170 492.967,127.901 493.583,127.632 494.200,127.362 494.817,127.093 495.433,126.823 496.050,126.553 496.667,126.283 497.283,126.013 497.900,125.742 498.517,125.471 499.133,125.201 499.750,124.930 500.367,124.658 500.983,124.387 501.600,124.115 502.217,123.844 502.833,123.572 503.450,123.300 504.067,123.028 504.683,122.755 505.300,122.483 505.917,122.210 506.533,121.938 507.150,121.665 507.767,121.392 508.383,121.119 509.000,120.845 509.617,120.572 510.233,120.298 510.850,120.024 511.467,119.751 512.083,119.477 512.700,119.202 513.317,118.928 513.933,118.654 514.550,118.379 515.167,118.105 515.783,117.830 516.400,117.555 517.017,117.280 517.633,117.005 518.250,116.730 518.867,116.455 519.483,116.179 520.100,115.904 520.717,115.628 521.333,115.352 521.950,115.077 522.567,114.801 523.183,114.525 523.800,114.248 524.417,113.972 525.033,113.696 525.650,113.419 526.267,113.143 526.883,112.866 527.500,112.589 528.117,112.313 528.733,112.036 529.350,111.759 529.967,111.482 530.583,111.204 531.200,110.927 531.817,110.650 532.433,110.372 533.050,110.095 533.667,109.817 534.283,109.540 534.900,109.262 535.517,108.984 536.133,108.706 536.750,108.428 537.367,108.150 537.983,107.872 538.600,107.594 539.217,107.315 539.833,107.037 540.450,106.758 541.067,106.480 541.683,106.201 542.300,105.923 542.917,105.644 543.533,105.365 544.150,105.086 544.767,104.807 545.383,104.528 546.000,104.249 546.617,103.970 547.233,103.691 547.850,103.412 548.467,103.132 549.083,102.853 549.700,102.574 550.317,102.294 550.933,102.015 551.550,101.735 552.167,101.455 552.783,101.176 553.400,100.896 554.017,100.616 554.633,100.336 555.250,100.056 555.867,99.776 556.483,99.496 557.100,99.216 557.717,98.936 558.333,98.655 558.950,98.375 559.567,98.095 560.183,97.814 560.800,97.534 561.417,97.254 562.033,96.973 562.650,96.692 563.267,96.412 563.883,96.131 564.500,95.850 565.117,95.570 565.733,95.289 566.350,95.008 566.967,94.727 567.583,94.446 568.200,94.165 568.817,93.884 569.433,93.603 570.050,93.322 570.667,93.041 571.283,92.760 571.900,92.478 572.517,92.197 573.133,91.916 573.750,91.634 574.367,91.353 574.983,91.072 575.600,90.790 576.217,90.509 576.833,90.227 577.450,89.946 578.067,89.664 578.683,89.382 579.300,89.101 579.917,88.819 580.533,88.537 581.150,88.255 581.767,87.973 582.383,87.692 583.000,87.410 583.617,87.128 584.233,86.846 584.850,86.564 585.467,86.282 586.083,86.000 586.700,85.717 587.317,85.435 587.933,85.153 588.550,84.871 589.167,84.589 589.783,84.306 590.400,84.024 591.017,83.742 591.633,83.459 592.250,83.177 592.867,82.895 593.483,82.612 594.100,82.330 594.717,82.047 595.333,81.765 595.950,81.482 596.567,81.200 597.183,80.917 597.800,80.634 598.417,80.352 599.033,80.069 599.650,79.786 600.267,79.504 600.883,79.221 601.500,78.938 602.117,78.655 602.733,78.372 603.350,78.089 603.967,77.807 604.583,77.524 605.200,77.241 605.817,76.958 606.433,76.675 607.050,76.392 607.667,76.109 608.283,75.826 608.900,75.543 609.517,75.259 610.133,74.976 610.750,74.693 611.367,74.410 611.983,74.127 612.600,73.844 613.217,73.560 613.833,73.277 614.450,72.994 615.067,72.710 615.683,72.427 616.300,72.144 616.917,71.860 617.533,71.577 618.150,71.294 618.767,71.010 619.383,70.727 620.000,70.443" fill="none" stroke="#146db4" stroke-width="2.2" clip-path="url(#v0)"/><text x="65" y="390" fill="#146db4" font-size="11">f</text><text x="53.0" y="364" font-size="10">-4</text><text x="3" y="349.0" font-size="10">-4.5</text><text x="191.75" y="364" font-size="10">-2</text><text x="3" y="276.5" font-size="10">-2.25</text><text x="330.5" y="364" font-size="10">0</text><text x="3" y="204.0" font-size="10">0</text><text x="469.25" y="364" font-size="10">2</text><text x="3" y="131.5" font-size="10">2.25</text><text x="608.0" y="364" font-size="10">4</text><text x="3" y="59.0" font-size="10">4.5</text></svg>